<?xml version="1.0" encoding="utf-8"?>
<!-- Generator: Adobe Illustrator 23.0.1, SVG Export Plug-In . SVG Version: 6.00 Build 0)  -->
<svg version="1.1" id="Layer_1" xmlns="http://www.w3.org/2000/svg" xmlns:xlink="http://www.w3.org/1999/xlink" x="0px" y="0px"
	 width="352px" height="352px" viewBox="0 0 352 352" style="enable-background:new 0 0 352 352;" xml:space="preserve">
<style type="text/css">
	.st0{fill:#BE1E2D;}
</style>
<g>
	<path class="st0" d="M286.5,39V106H285c0-35.6-20-66.2-55-66.2c-19.1,0-28.5,15.6-28.5,30.6c0,48,99.2,52.1,99.2,117.1
		c0,35.6-27.1,62.7-76.2,62.7c-16.2,0-28-2.9-38.6-5.6c-10-2.6-25-6.5-25,13.5h-1.5v-75.6h1.5c0,17.1,16.5,66.2,62.7,66.2
		c25.9,0,34.4-17.1,34.4-30.6c0-55.6-97.1-52.1-97.1-121c0-35,28.5-58.9,68.6-58.9c16.5,0,26.2,5,39.1,8.5c8.8,2.5,14.4,0.8,16-9.3
		C254.7,14,217,0,176,0C132.9,0,93.4,15.5,62.8,41.2h78.9v1.5c-16.8,0-18.2,10.9-18.5,32.4v160.1c0,48.3-37,65.3-67.5,69.3
		C87.2,333.9,129.5,352,176,352c97.2,0,176-78.8,176-176C352,120.7,326.5,71.3,286.5,39z"/>
	<path class="st0" d="M77.6,245.8V75.1c0-20.6-1.6-31.4-16.5-32.3C23.7,75,0,122.7,0,176c0,49.6,20.5,94.3,53.5,126.3
		C70.5,295.1,77.6,279.4,77.6,245.8z"/>
</g>
</svg>
