<?xml version="1.0" encoding="utf-8"?>
<!-- Generator: Adobe Illustrator 23.0.1, SVG Export Plug-In . SVG Version: 6.00 Build 0)  -->
<svg version="1.1" id="Layer_1" xmlns="http://www.w3.org/2000/svg" xmlns:xlink="http://www.w3.org/1999/xlink" x="0px" y="0px"
	 width="488.1px" height="488.2px" viewBox="0 0 488.1 488.2" style="enable-background:new 0 0 488.1 488.2;" xml:space="preserve"
	>
<g>
	<path d="M320,455.8c9.1-7.2,14.5-15.8,14.5-24.8v-0.1c-3.8,4.5-8.7,8.6-14.5,12.4V455.8z"/>
	<path d="M284.6,372.6c9.5-2.5,18.1-5.9,25.3-9.9v-13.5c-7.7,3.7-16.2,6.8-25.3,9V372.6z"/>
	<path d="M284.6,297.9c9.5-2.5,18.1-5.9,25.3-9.9v-13.5c-7.7,3.7-16.2,6.8-25.3,9V297.9z"/>
	<path d="M284.6,322.8c9.5-2.5,18.1-5.9,25.3-9.9v-13.5c-7.7,3.7-16.2,6.8-25.3,9V322.8z"/>
	<path d="M320,430.8c9.1-7.2,14.5-15.7,14.5-24.8v-0.1c-3.8,4.5-8.7,8.6-14.5,12.4V430.8z"/>
	<path d="M284.6,472.3c9.5-2.5,18.1-5.9,25.3-9.9v-13.5c-7.7,3.7-16.2,6.8-25.3,9V472.3z"/>
	<path d="M284.6,447.4c9.5-2.5,18.1-5.9,25.3-9.9v-13.6c-7.7,3.7-16.2,6.8-25.3,9V447.4z"/>
	<path d="M284.6,397.5c9.5-2.5,18.1-5.9,25.3-9.9v-13.5c-7.7,3.7-16.2,6.8-25.3,9V397.5z"/>
	<path d="M284.6,422.4c9.5-2.5,18.1-5.9,25.3-9.9V399c-7.7,3.7-16.2,6.8-25.3,9V422.4z"/>
	<path d="M284.6,148.4c9.5-2.5,18.1-5.9,25.3-9.9V125c-7.7,3.7-16.2,6.8-25.3,9V148.4z"/>
	<path d="M284.6,273c9.5-2.5,18.1-5.9,25.3-9.9v-13.5c-7.7,3.7-16.2,6.7-25.3,9V273z"/>
	<path d="M310,100.1c-7.7,3.7-16.2,6.8-25.3,9v14.4c9.5-2.5,18.1-5.9,25.3-9.9V100.1z"/>
	<path d="M284.6,198.3c9.5-2.5,18.1-5.9,25.3-9.9v-13.5c-7.7,3.7-16.2,6.8-25.3,9V198.3z"/>
	<path d="M284.6,173.4c9.5-2.5,18.1-5.9,25.3-9.9v-13.6c-7.7,3.7-16.2,6.8-25.3,9V173.4z"/>
	<path d="M284.6,223.2c9.5-2.5,18.1-5.9,25.3-9.9v-13.5c-7.7,3.7-16.2,6.8-25.3,9V223.2z"/>
	<path d="M284.6,248.1c9.5-2.5,18.1-5.9,25.3-9.9v-13.5c-7.7,3.7-16.2,6.8-25.3,9V248.1z"/>
	<path d="M284.6,347.7c9.5-2.5,18.1-5.9,25.3-9.9v-13.5c-7.7,3.7-16.2,6.8-25.3,9V347.7z"/>
	<path d="M320,356.1c9.1-7.2,14.5-15.7,14.5-24.8v-0.1c-3.8,4.5-8.7,8.6-14.5,12.4V356.1z"/>
	<path d="M320,331.2c9.1-7.2,14.5-15.7,14.5-24.8v-0.1c-3.8,4.5-8.7,8.6-14.5,12.4V331.2z"/>
	<path d="M320,306.3c9.1-7.2,14.5-15.7,14.5-24.8v-0.1c-3.8,4.5-8.7,8.6-14.5,12.4V306.3z"/>
	<path d="M320,281.4c9.1-7.2,14.5-15.7,14.5-24.8v-0.1c-3.8,4.4-8.7,8.6-14.5,12.4V281.4z"/>
	<path d="M320,381c9.1-7.2,14.5-15.7,14.5-24.8v-0.1c-3.8,4.4-8.7,8.6-14.5,12.4V381z"/>
	<path d="M320,405.9c9.1-7.2,14.5-15.7,14.5-24.8V381c-3.8,4.5-8.7,8.6-14.5,12.4V405.9z"/>
	<path d="M320,231.6c9.1-7.2,14.5-15.7,14.5-24.8v-0.1c-3.8,4.4-8.7,8.6-14.5,12.4V231.6z"/>
	<path d="M320,156.8c9.1-7.2,14.5-15.7,14.5-24.8v-0.1c-3.8,4.5-8.7,8.6-14.5,12.4V156.8z"/>
	<path d="M320,181.7c9.1-7.2,14.5-15.7,14.5-24.8l0,0c-3.8,4.4-8.7,8.6-14.5,12.4V181.7z"/>
	<path d="M320,256.5c9.1-7.2,14.5-15.7,14.5-24.8v-0.1c-3.8,4.5-8.7,8.6-14.5,12.4V256.5z"/>
	<path d="M334.5,82.1c-3.8,4.5-8.7,8.6-14.5,12.4V107C329.1,99.8,334.5,91.3,334.5,82.1L334.5,82.1z"/>
	<path d="M320,206.6c9.1-7.2,14.5-15.7,14.5-24.8v-0.1c-3.8,4.5-8.7,8.6-14.5,12.4V206.6z"/>
	<path d="M320,131.9c9.1-7.2,14.5-15.7,14.5-24.8V107c-3.8,4.4-8.7,8.6-14.5,12.4V131.9z"/>
	<path d="M274.6,111.2c-8.2,1.5-16.8,2.3-25.6,2.5v14.9c8.9-0.3,17.5-1.3,25.6-2.8V111.2z"/>
	<path d="M274.6,260.7c-8.2,1.5-16.8,2.3-25.6,2.5v14.9c8.9-0.3,17.5-1.3,25.6-2.8V260.7z"/>
	<path d="M274.6,335.4c-8.2,1.5-16.8,2.3-25.6,2.5v15c8.9-0.3,17.5-1.3,25.6-2.8V335.4z"/>
	<path d="M274.6,310.5c-8.2,1.4-16.8,2.3-25.6,2.5v14.9c8.9-0.3,17.5-1.3,25.6-2.8V310.5z"/>
	<path d="M274.6,385.2c-8.2,1.5-16.8,2.3-25.6,2.5v14.9c8.9-0.3,17.5-1.3,25.6-2.8V385.2z"/>
	<path d="M274.6,285.6c-8.2,1.5-16.8,2.3-25.6,2.5V303c8.9-0.3,17.5-1.3,25.6-2.8V285.6z"/>
	<path d="M274.6,360.3c-8.2,1.4-16.8,2.3-25.6,2.5v14.9c8.9-0.3,17.5-1.3,25.6-2.8V360.3z"/>
	<path d="M157.1,77.7c-6.5,12.1-12.3,25.2-17.2,39.3H239V85.2c-0.8,0-1.6,0-2.5,0c-6.2,0-12.4-0.6-18.5-1.7s-10.5-2.4-13.2-3.8
		l8.2-7.8c2.2,1,5.6,2.1,10.2,3.2c4.6,1.1,9,1.7,13.3,1.7c0.9,0,1.7,0,2.5-0.1V59c-1.5-0.4-3.2-0.9-5-1.3c-5.9-1.5-9.9-2.7-12.1-3.4
		c-10.1-3.5-15.1-8.4-15.1-14.7c0-5.2,3.3-9.1,9.8-11.9c6-2.5,13.5-3.9,22.4-4.1v-13C208.3,12.9,179.4,36.5,157.1,77.7z"/>
	<path d="M224,39.1c0,1.7,0.9,3.2,2.8,4.5c1.9,1.3,4.2,2.5,7.1,3.5c1.5,0.5,3.2,1.1,5.2,1.7v-17c-4.4,0.1-8,0.7-10.6,1.8
		C225.4,34.9,224,36.7,224,39.1z"/>
	<path d="M274.6,410.1c-8.2,1.4-16.8,2.3-25.6,2.5v14.9c8.9-0.3,17.5-1.3,25.6-2.8V410.1z"/>
	<path d="M249,477.4c8.9-0.3,17.5-1.2,25.6-2.8v-14.7c-8.2,1.5-16.8,2.3-25.6,2.6V477.4z"/>
	<path d="M274.6,435c-8.2,1.5-16.8,2.3-25.6,2.5v14.9c8.9-0.3,17.5-1.3,25.6-2.8V435z"/>
	<path d="M126.2,126.9H29.8c-18.3,33.4-29,71.5-29.8,112h109.9C110.3,199.2,115.9,160.9,126.2,126.9z"/>
	<path d="M239,248.9H119.9c0.4,40,6.2,78.2,16.8,112H239V248.9z"/>
	<path d="M119.9,238.9H239v-112H136.6C126.1,160.7,120.3,199,119.9,238.9z"/>
	<path d="M274.6,235.8c-8.2,1.5-16.8,2.3-25.6,2.5v14.9c8.9-0.3,17.5-1.3,25.6-2.8V235.8z"/>
	<path d="M239,477.3V371h-99.1c4.9,14,10.6,27.2,17.2,39.3C179.4,451.4,208.3,475,239,477.3z"/>
	<path d="M109.9,248.9H0c0.8,40.5,11.5,78.6,29.8,112h96.4C115.9,326.9,110.3,288.7,109.9,248.9z"/>
	<path d="M249,0c-1.7,0-3.3-0.1-5-0.1s-3.3,0-5,0.1C152.9,1.7,77.6,48.1,35.6,116.9h93.8c5.3-15.8,11.6-30.6,18.9-44
		C172.4,28.3,204.5,2.8,239,0.6c1.2-0.1,2.5-0.1,3.8-0.1c0.4,0,0.8,0,1.3,0c0.4,0,0.8,0,1.3,0c1.3,0,2.5,0,3.8,0.1
		c24.5,0.7,47.3,6.2,64.9,15.7c19.7,10.7,30.6,25.2,30.6,41v373.8c-0.1,15.7-10.9,30.1-30.6,40.8c-17.6,9.5-40.4,15-64.9,15.7
		l-3.8,0.1c-0.4,0-0.8,0-1.3,0c-0.4,0-0.8,0-1.3,0c-1.3,0-2.5-0.1-3.8-0.1c-34.5-2.3-66.6-27.7-90.8-72.3
		c-7.3-13.5-13.6-28.3-18.9-44H35.5c42,68.9,117.3,115.3,203.5,117c1.7,0,3.3,0.1,5,0.1s3.3,0,5-0.1
		c132.5-2.6,239.1-110.9,239.1-244S381.5,2.6,249,0z"/>
	<path d="M274.6,161.1c-8.2,1.5-16.8,2.3-25.6,2.5v14.9c8.9-0.3,17.5-1.3,25.6-2.8V161.1z"/>
	<path d="M274.6,186c-8.2,1.5-16.8,2.3-25.6,2.5v14.9c8.9-0.3,17.5-1.3,25.6-2.8V186z"/>
	<path d="M274.6,136.1c-8.2,1.5-16.8,2.3-25.6,2.5v14.9c8.9-0.3,17.5-1.3,25.6-2.8V136.1z"/>
	<path d="M274.6,210.9c-8.2,1.5-16.8,2.3-25.6,2.5v14.9c8.9-0.3,17.5-1.3,25.6-2.8V210.9z"/>
	<path d="M263.1,56.7c-2.2-1.1-4.5-2-7-2.8s-6-1.9-10.7-3.2c-2.4-0.7-4.5-1.3-6.4-1.9v10.3c2.6,0.7,4.8,1.4,6.5,2
		c2.7,0.9,5,2,6.8,3.4c1.9,1.4,2.8,3,2.8,4.8c0,2.4-1.7,4.3-5.2,5.6c-2.9,1.2-6.6,1.8-10.9,2v8.4c6-0.1,11.5-0.8,16.4-1.9
		c5.5-1.3,9.9-3.2,13-5.8c3.2-2.5,4.7-5.7,4.7-9.3c0-2.3-0.9-4.5-2.8-6.4C268.5,59.8,266.1,58.1,263.1,56.7z"/>
	<path d="M240.6,31.8c4,0,7.8,0.4,11.4,1.2c3.6,0.8,6.3,1.7,8.3,2.8l8.2-7.4c-7.5-3.2-16.5-4.8-27.2-4.8c-0.8,0-1.6,0-2.3,0v8.2
		C239.5,31.8,240,31.8,240.6,31.8z"/>
</g>
</svg>
