<?xml version="1.0" encoding="utf-8"?>
<!-- Generator: Adobe Illustrator 23.0.1, SVG Export Plug-In . SVG Version: 6.00 Build 0)  -->
<svg version="1.1" id="Layer_2" xmlns="http://www.w3.org/2000/svg" xmlns:xlink="http://www.w3.org/1999/xlink" x="0px" y="0px"
	 width="488.12px" height="488.18px" viewBox="0 0 488.12 488.18" style="enable-background:new 0 0 488.12 488.18;"
	 xml:space="preserve">
<style type="text/css">
	.st0{fill:#231F20;}
	.st1{fill:#9E0202;}
	.st2{fill:#FFFFFF;}
</style>
<g>
	<path class="st0" d="M122.63,993.07c-1.25,0-2.51-0.02-3.75-0.06v-0.09C120.11,993,121.38,993.05,122.63,993.07z"/>
</g>
<g>
	<path class="st1" d="M119.87,249.05c0.44,39.96,6.24,78.24,16.75,112.02h102.41V249.05H119.87z M139.91,371.07
		c4.89,14.03,10.63,27.19,17.17,39.26c22.28,41.15,51.21,64.75,81.95,67.06V371.07H139.91z M228.39,33.74
		c-2.95,1.23-4.42,3.03-4.42,5.42c0,1.69,0.93,3.2,2.79,4.53s4.22,2.48,7.07,3.46c1.46,0.5,3.2,1.07,5.2,1.69V31.93
		C234.59,32.04,231.04,32.64,228.39,33.74z M216.67,27.79c6-2.52,13.46-3.88,22.36-4.08v-13c-30.74,2.31-59.67,25.91-81.95,67.05
		c-6.54,12.07-12.28,25.23-17.17,39.27h99.12V85.27c-0.81,0.02-1.64,0.03-2.48,0.03c-6.22,0-12.38-0.57-18.49-1.71
		s-10.5-2.42-13.2-3.83l8.24-7.75c2.17,1.03,5.56,2.11,10.17,3.22c4.6,1.12,9.03,1.67,13.28,1.67c0.85,0,1.68-0.02,2.48-0.05V59.09
		c-1.51-0.42-3.16-0.87-4.97-1.34c-5.9-1.52-9.94-2.66-12.11-3.43c-10.05-3.53-15.07-8.42-15.07-14.67
		C206.88,34.49,210.14,30.54,216.67,27.79z M136.62,127.03c-10.51,33.78-16.31,72.06-16.75,112.02h119.16V127.03H136.62z
		 M119.87,249.05c0.44,39.96,6.24,78.24,16.75,112.02h102.41V249.05H119.87z M139.91,371.07c4.89,14.03,10.63,27.19,17.17,39.26
		c22.28,41.15,51.21,64.75,81.95,67.06V371.07H139.91z M228.39,33.74c-2.95,1.23-4.42,3.03-4.42,5.42c0,1.69,0.93,3.2,2.79,4.53
		s4.22,2.48,7.07,3.46c1.46,0.5,3.2,1.07,5.2,1.69V31.93C234.59,32.04,231.04,32.64,228.39,33.74z M216.67,27.79
		c6-2.52,13.46-3.88,22.36-4.08v-13c-30.74,2.31-59.67,25.91-81.95,67.05c-6.54,12.07-12.28,25.23-17.17,39.27h99.12V85.27
		c-0.81,0.02-1.64,0.03-2.48,0.03c-6.22,0-12.38-0.57-18.49-1.71s-10.5-2.42-13.2-3.83l8.24-7.75c2.17,1.03,5.56,2.11,10.17,3.22
		c4.6,1.12,9.03,1.67,13.28,1.67c0.85,0,1.68-0.02,2.48-0.05V59.09c-1.51-0.42-3.16-0.87-4.97-1.34c-5.9-1.52-9.94-2.66-12.11-3.43
		c-10.05-3.53-15.07-8.42-15.07-14.67C206.88,34.49,210.14,30.54,216.67,27.79z M136.62,127.03
		c-10.51,33.78-16.31,72.06-16.75,112.02h119.16V127.03H136.62z M119.87,249.05c0.44,39.96,6.24,78.24,16.75,112.02h102.41V249.05
		H119.87z M139.91,371.07c4.89,14.03,10.63,27.19,17.17,39.26c22.28,41.15,51.21,64.75,81.95,67.06V371.07H139.91z M228.39,33.74
		c-2.95,1.23-4.42,3.03-4.42,5.42c0,1.69,0.93,3.2,2.79,4.53s4.22,2.48,7.07,3.46c1.46,0.5,3.2,1.07,5.2,1.69V31.93
		C234.59,32.04,231.04,32.64,228.39,33.74z M216.67,27.79c6-2.52,13.46-3.88,22.36-4.08v-13c-30.74,2.31-59.67,25.91-81.95,67.05
		c-6.54,12.07-12.28,25.23-17.17,39.27h99.12V85.27c-0.81,0.02-1.64,0.03-2.48,0.03c-6.22,0-12.38-0.57-18.49-1.71
		s-10.5-2.42-13.2-3.83l8.24-7.75c2.17,1.03,5.56,2.11,10.17,3.22c4.6,1.12,9.03,1.67,13.28,1.67c0.85,0,1.68-0.02,2.48-0.05V59.09
		c-1.51-0.42-3.16-0.87-4.97-1.34c-5.9-1.52-9.94-2.66-12.11-3.43c-10.05-3.53-15.07-8.42-15.07-14.67
		C206.88,34.49,210.14,30.54,216.67,27.79z M136.62,127.03c-10.51,33.78-16.31,72.06-16.75,112.02h119.16V127.03H136.62z
		 M119.87,249.05c0.44,39.96,6.24,78.24,16.75,112.02h102.41V249.05H119.87z M139.91,371.07c4.89,14.03,10.63,27.19,17.17,39.26
		c22.28,41.15,51.21,64.75,81.95,67.06V371.07H139.91z M249.03,113.88v14.9c8.9-0.29,17.5-1.28,25.6-2.84v-14.61
		C266.42,112.78,257.82,113.64,249.03,113.88z M284.63,109.22v14.42c9.5-2.54,18.09-5.92,25.35-9.94v-13.48
		C302.32,103.95,293.78,106.98,284.63,109.22z M319.98,94.62v12.49c9.1-7.21,14.47-15.73,14.54-24.78v-0.09
		C330.7,86.69,325.83,90.85,319.98,94.62z M319.98,144.44v12.49c9.1-7.21,14.47-15.73,14.54-24.78v-0.09
		C330.7,136.51,325.83,140.67,319.98,144.44z M284.63,159.04v14.42c9.5-2.54,18.09-5.92,25.35-9.94v-13.48
		C302.32,153.77,293.78,156.8,284.63,159.04z M249.03,163.7v14.9c8.9-0.29,17.5-1.28,25.6-2.84v-14.61
		C266.42,162.6,257.82,163.46,249.03,163.7z M319.98,194.25v12.49c9.1-7.21,14.47-15.73,14.54-24.78v-0.09
		C330.7,186.32,325.83,190.48,319.98,194.25z M284.63,208.85v14.42c9.5-2.54,18.09-5.92,25.35-9.94v-13.47
		C302.32,203.59,293.78,206.61,284.63,208.85z M249.03,213.51v14.9c8.9-0.29,17.5-1.28,25.6-2.84v-14.61
		C266.42,212.41,257.82,213.27,249.03,213.51z M319.98,244.07v12.49c9.1-7.21,14.47-15.73,14.54-24.78v-0.09
		C330.7,236.14,325.83,240.3,319.98,244.07z M249.03,263.33v14.9c8.9-0.29,17.5-1.28,25.6-2.84v-14.61
		C266.42,262.23,257.82,263.09,249.03,263.33z M284.63,258.67v14.42c9.5-2.54,18.09-5.92,25.35-9.94v-13.47
		C302.32,253.41,293.78,256.43,284.63,258.67z M319.98,293.89v12.49c9.1-7.21,14.47-15.73,14.54-24.78v-0.09
		C330.7,285.96,325.83,290.12,319.98,293.89z M249.03,313.15v14.9c8.9-0.29,17.5-1.28,25.6-2.84V310.6
		C266.42,312.05,257.82,312.91,249.03,313.15z M284.63,308.49v14.42c9.5-2.54,18.09-5.92,25.35-9.94V299.5
		C302.32,303.23,293.78,306.25,284.63,308.49z M319.98,343.71v12.49c9.1-7.21,14.47-15.73,14.54-24.78v-0.09
		C330.7,335.78,325.83,339.94,319.98,343.71z M249.03,362.97v14.9c8.9-0.29,17.5-1.28,25.6-2.84v-14.61
		C266.42,361.87,257.82,362.73,249.03,362.97z M284.63,358.31v14.42c9.5-2.54,18.09-5.92,25.35-9.94v-13.47
		C302.32,353.05,293.78,356.07,284.63,358.31z M319.98,393.52v12.49c9.1-7.21,14.47-15.73,14.54-24.78v-0.09
		C330.7,385.59,325.83,389.75,319.98,393.52z M249.03,412.78v14.9c8.9-0.29,17.5-1.28,25.6-2.84v-14.61
		C266.42,411.68,257.82,412.54,249.03,412.78z M284.63,408.12v14.42c9.5-2.54,18.09-5.92,25.35-9.94v-13.48
		C302.32,402.85,293.78,405.88,284.63,408.12z M319.98,443.34v12.53c9.1-7.23,14.47-15.77,14.54-24.82v-0.09
		C330.7,435.41,325.83,439.57,319.98,443.34z M249.03,462.6v14.9c8.9-0.26,17.5-1.23,25.6-2.78v-14.67
		C266.42,461.5,257.82,462.36,249.03,462.6z M284.63,457.94v14.48c9.5-2.53,18.09-5.92,25.35-9.94v-13.54
		C302.32,452.67,293.78,455.7,284.63,457.94z M319.98,418.43v12.49c9.1-7.21,14.47-15.73,14.54-24.78v-0.09
		C330.7,410.5,325.83,414.66,319.98,418.43z M249.03,437.69v14.9c8.9-0.29,17.5-1.28,25.6-2.84v-14.61
		C266.42,436.59,257.82,437.45,249.03,437.69z M284.63,433.03v14.42c9.5-2.54,18.09-5.92,25.35-9.94v-13.47
		C302.32,427.77,293.78,430.79,284.63,433.03z M319.98,368.62v12.48c9.1-7.21,14.47-15.73,14.54-24.78v-0.08
		C330.7,360.69,325.83,364.85,319.98,368.62z M249.03,387.88v14.89c8.9-0.29,17.5-1.28,25.6-2.84v-14.6
		C266.42,386.78,257.82,387.64,249.03,387.88z M284.63,383.22v14.41c9.5-2.54,18.09-5.92,25.35-9.94v-13.47
		C302.32,377.95,293.78,380.98,284.63,383.22z M319.98,318.8v12.49c9.1-7.21,14.47-15.73,14.54-24.78v-0.09
		C330.7,310.87,325.83,315.03,319.98,318.8z M249.03,338.06v14.9c8.9-0.29,17.5-1.28,25.6-2.84v-14.61
		C266.42,336.96,257.82,337.82,249.03,338.06z M284.63,333.4v14.42c9.5-2.54,18.09-5.92,25.35-9.94V324.4
		C302.32,328.13,293.78,331.16,284.63,333.4z M319.98,268.98v12.49c9.1-7.21,14.47-15.73,14.54-24.78v-0.09
		C330.7,261.05,325.83,265.21,319.98,268.98z M249.03,288.24v14.9c8.9-0.29,17.5-1.28,25.6-2.84v-14.61
		C266.42,287.14,257.82,288,249.03,288.24z M284.63,283.58V298c9.5-2.54,18.09-5.92,25.35-9.94v-13.48
		C302.32,278.31,293.78,281.34,284.63,283.58z M249.03,238.42v14.9c8.9-0.29,17.5-1.28,25.6-2.84v-14.61
		C266.42,237.32,257.82,238.18,249.03,238.42z M284.63,233.76v14.42c9.5-2.54,18.09-5.92,25.35-9.94v-13.48
		C302.32,228.49,293.78,231.52,284.63,233.76z M319.98,219.16v12.49c9.1-7.21,14.47-15.73,14.54-24.78v-0.09
		C330.7,211.23,325.83,215.39,319.98,219.16z M319.98,169.35v12.48c9.1-7.21,14.47-15.73,14.54-24.78v-0.08
		C330.7,161.42,325.83,165.58,319.98,169.35z M284.63,183.95v14.41c9.5-2.54,18.09-5.92,25.35-9.94v-13.46
		C302.32,178.69,293.78,181.71,284.63,183.95z M249.03,188.61v14.89c8.9-0.29,17.5-1.28,25.6-2.84v-14.6
		C266.42,187.51,257.82,188.37,249.03,188.61z M249.03,138.79v14.9c8.9-0.29,17.5-1.28,25.6-2.84v-14.61
		C266.42,137.69,257.82,138.55,249.03,138.79z M319.98,119.53v12.49c9.1-7.21,14.47-15.73,14.54-24.78v-0.09
		C330.7,111.6,325.83,115.76,319.98,119.53z M284.63,134.13v14.42c9.5-2.54,18.09-5.92,25.35-9.94v-13.47
		C302.32,128.87,293.78,131.89,284.63,134.13z M228.39,33.74c-2.95,1.23-4.42,3.03-4.42,5.42c0,1.69,0.93,3.2,2.79,4.53
		s4.22,2.48,7.07,3.46c1.46,0.5,3.2,1.07,5.2,1.69V31.93C234.59,32.04,231.04,32.64,228.39,33.74z M216.67,27.79
		c6-2.52,13.46-3.88,22.36-4.08v-13c-30.74,2.31-59.67,25.91-81.95,67.05c-6.54,12.07-12.28,25.23-17.17,39.27h99.12V85.27
		c-0.81,0.02-1.64,0.03-2.48,0.03c-6.22,0-12.38-0.57-18.49-1.71s-10.5-2.42-13.2-3.83l8.24-7.75c2.17,1.03,5.56,2.11,10.17,3.22
		c4.6,1.12,9.03,1.67,13.28,1.67c0.85,0,1.68-0.02,2.48-0.05V59.09c-1.51-0.42-3.16-0.87-4.97-1.34c-5.9-1.52-9.94-2.66-12.11-3.43
		c-10.05-3.53-15.07-8.42-15.07-14.67C206.88,34.49,210.14,30.54,216.67,27.79z M136.62,127.03
		c-10.51,33.78-16.31,72.06-16.75,112.02h119.16V127.03H136.62z M119.87,249.05c0.44,39.96,6.24,78.24,16.75,112.02h102.41V249.05
		H119.87z M139.91,371.07c4.89,14.03,10.63,27.19,17.17,39.26c22.28,41.15,51.21,64.75,81.95,67.06V371.07H139.91z M249.03,113.88
		v14.9c8.9-0.29,17.5-1.28,25.6-2.84v-14.61C266.42,112.78,257.82,113.64,249.03,113.88z M284.63,109.22v14.42
		c9.5-2.54,18.09-5.92,25.35-9.94v-13.48C302.32,103.95,293.78,106.98,284.63,109.22z M319.98,94.62v12.49
		c9.1-7.21,14.47-15.73,14.54-24.78v-0.09C330.7,86.69,325.83,90.85,319.98,94.62z M249.03,138.79v14.9
		c8.9-0.29,17.5-1.28,25.6-2.84v-14.61C266.42,137.69,257.82,138.55,249.03,138.79z M319.98,119.53v12.49
		c9.1-7.21,14.47-15.73,14.54-24.78v-0.09C330.7,111.6,325.83,115.76,319.98,119.53z M284.63,134.13v14.42
		c9.5-2.54,18.09-5.92,25.35-9.94v-13.47C302.32,128.87,293.78,131.89,284.63,134.13z M319.98,144.44v12.49
		c9.1-7.21,14.47-15.73,14.54-24.78v-0.09C330.7,136.51,325.83,140.67,319.98,144.44z M284.63,159.04v14.42
		c9.5-2.54,18.09-5.92,25.35-9.94v-13.48C302.32,153.77,293.78,156.8,284.63,159.04z M249.03,163.7v14.9
		c8.9-0.29,17.5-1.28,25.6-2.84v-14.61C266.42,162.6,257.82,163.46,249.03,163.7z M319.98,194.25v12.49
		c9.1-7.21,14.47-15.73,14.54-24.78v-0.09C330.7,186.32,325.83,190.48,319.98,194.25z M284.63,208.85v14.42
		c9.5-2.54,18.09-5.92,25.35-9.94v-13.47C302.32,203.59,293.78,206.61,284.63,208.85z M249.03,213.51v14.9
		c8.9-0.29,17.5-1.28,25.6-2.84v-14.61C266.42,212.41,257.82,213.27,249.03,213.51z M319.98,244.07v12.49
		c9.1-7.21,14.47-15.73,14.54-24.78v-0.09C330.7,236.14,325.83,240.3,319.98,244.07z M249.03,263.33v14.9
		c8.9-0.29,17.5-1.28,25.6-2.84v-14.61C266.42,262.23,257.82,263.09,249.03,263.33z M284.63,258.67v14.42
		c9.5-2.54,18.09-5.92,25.35-9.94v-13.47C302.32,253.41,293.78,256.43,284.63,258.67z M319.98,293.89v12.49
		c9.1-7.21,14.47-15.73,14.54-24.78v-0.09C330.7,285.96,325.83,290.12,319.98,293.89z M249.03,313.15v14.9
		c8.9-0.29,17.5-1.28,25.6-2.84V310.6C266.42,312.05,257.82,312.91,249.03,313.15z M284.63,308.49v14.42
		c9.5-2.54,18.09-5.92,25.35-9.94V299.5C302.32,303.23,293.78,306.25,284.63,308.49z M319.98,343.71v12.49
		c9.1-7.21,14.47-15.73,14.54-24.78v-0.09C330.7,335.78,325.83,339.94,319.98,343.71z M249.03,362.97v14.9
		c8.9-0.29,17.5-1.28,25.6-2.84v-14.61C266.42,361.87,257.82,362.73,249.03,362.97z M284.63,358.31v14.42
		c9.5-2.54,18.09-5.92,25.35-9.94v-13.47C302.32,353.05,293.78,356.07,284.63,358.31z M319.98,393.52v12.49
		c9.1-7.21,14.47-15.73,14.54-24.78v-0.09C330.7,385.59,325.83,389.75,319.98,393.52z M249.03,412.78v14.9
		c8.9-0.29,17.5-1.28,25.6-2.84v-14.61C266.42,411.68,257.82,412.54,249.03,412.78z M284.63,408.12v14.42
		c9.5-2.54,18.09-5.92,25.35-9.94v-13.48C302.32,402.85,293.78,405.88,284.63,408.12z M319.98,443.34v12.53
		c9.1-7.23,14.47-15.77,14.54-24.82v-0.09C330.7,435.41,325.83,439.57,319.98,443.34z M249.03,462.6v14.9
		c8.9-0.26,17.5-1.23,25.6-2.78v-14.67C266.42,461.5,257.82,462.36,249.03,462.6z M284.63,457.94v14.48
		c9.5-2.53,18.09-5.92,25.35-9.94v-13.54C302.32,452.67,293.78,455.7,284.63,457.94z M319.98,418.43v12.49
		c9.1-7.21,14.47-15.73,14.54-24.78v-0.09C330.7,410.5,325.83,414.66,319.98,418.43z M249.03,437.69v14.9
		c8.9-0.29,17.5-1.28,25.6-2.84v-14.61C266.42,436.59,257.82,437.45,249.03,437.69z M284.63,433.03v14.42
		c9.5-2.54,18.09-5.92,25.35-9.94v-13.47C302.32,427.77,293.78,430.79,284.63,433.03z M319.98,368.62v12.48
		c9.1-7.21,14.47-15.73,14.54-24.78v-0.08C330.7,360.69,325.83,364.85,319.98,368.62z M249.03,387.88v14.89
		c8.9-0.29,17.5-1.28,25.6-2.84v-14.6C266.42,386.78,257.82,387.64,249.03,387.88z M284.63,383.22v14.41
		c9.5-2.54,18.09-5.92,25.35-9.94v-13.47C302.32,377.95,293.78,380.98,284.63,383.22z M319.98,318.8v12.49
		c9.1-7.21,14.47-15.73,14.54-24.78v-0.09C330.7,310.87,325.83,315.03,319.98,318.8z M249.03,338.06v14.9
		c8.9-0.29,17.5-1.28,25.6-2.84v-14.61C266.42,336.96,257.82,337.82,249.03,338.06z M284.63,333.4v14.42
		c9.5-2.54,18.09-5.92,25.35-9.94V324.4C302.32,328.13,293.78,331.16,284.63,333.4z M319.98,268.98v12.49
		c9.1-7.21,14.47-15.73,14.54-24.78v-0.09C330.7,261.05,325.83,265.21,319.98,268.98z M249.03,288.24v14.9
		c8.9-0.29,17.5-1.28,25.6-2.84v-14.61C266.42,287.14,257.82,288,249.03,288.24z M284.63,283.58V298c9.5-2.54,18.09-5.92,25.35-9.94
		v-13.48C302.32,278.31,293.78,281.34,284.63,283.58z M249.03,238.42v14.9c8.9-0.29,17.5-1.28,25.6-2.84v-14.61
		C266.42,237.32,257.82,238.18,249.03,238.42z M284.63,233.76v14.42c9.5-2.54,18.09-5.92,25.35-9.94v-13.48
		C302.32,228.49,293.78,231.52,284.63,233.76z M319.98,219.16v12.49c9.1-7.21,14.47-15.73,14.54-24.78v-0.09
		C330.7,211.23,325.83,215.39,319.98,219.16z M319.98,169.35v12.48c9.1-7.21,14.47-15.73,14.54-24.78v-0.08
		C330.7,161.42,325.83,165.58,319.98,169.35z M284.63,183.95v14.41c9.5-2.54,18.09-5.92,25.35-9.94v-13.46
		C302.32,178.69,293.78,181.71,284.63,183.95z M249.03,188.61v14.89c8.9-0.29,17.5-1.28,25.6-2.84v-14.6
		C266.42,187.51,257.82,188.37,249.03,188.61z M228.39,33.74c-2.95,1.23-4.42,3.03-4.42,5.42c0,1.69,0.93,3.2,2.79,4.53
		s4.22,2.48,7.07,3.46c1.46,0.5,3.2,1.07,5.2,1.69V31.93C234.59,32.04,231.04,32.64,228.39,33.74z M216.67,27.79
		c6-2.52,13.46-3.88,22.36-4.08v-13c-30.74,2.31-59.67,25.91-81.95,67.05c-6.54,12.07-12.28,25.23-17.17,39.27h99.12V85.27
		c-0.81,0.02-1.64,0.03-2.48,0.03c-6.22,0-12.38-0.57-18.49-1.71s-10.5-2.42-13.2-3.83l8.24-7.75c2.17,1.03,5.56,2.11,10.17,3.22
		c4.6,1.12,9.03,1.67,13.28,1.67c0.85,0,1.68-0.02,2.48-0.05V59.09c-1.51-0.42-3.16-0.87-4.97-1.34c-5.9-1.52-9.94-2.66-12.11-3.43
		c-10.05-3.53-15.07-8.42-15.07-14.67C206.88,34.49,210.14,30.54,216.67,27.79z M136.62,127.03
		c-10.51,33.78-16.31,72.06-16.75,112.02h119.16V127.03H136.62z M119.87,249.05c0.44,39.96,6.24,78.24,16.75,112.02h102.41V249.05
		H119.87z M139.91,371.07c4.89,14.03,10.63,27.19,17.17,39.26c22.28,41.15,51.21,64.75,81.95,67.06V371.07H139.91z M249.03,113.88
		v14.9c8.9-0.29,17.5-1.28,25.6-2.84v-14.61C266.42,112.78,257.82,113.64,249.03,113.88z M284.63,109.22v14.42
		c9.5-2.54,18.09-5.92,25.35-9.94v-13.48C302.32,103.95,293.78,106.98,284.63,109.22z M319.98,94.62v12.49
		c9.1-7.21,14.47-15.73,14.54-24.78v-0.09C330.7,86.69,325.83,90.85,319.98,94.62z M249.03,138.79v14.9
		c8.9-0.29,17.5-1.28,25.6-2.84v-14.61C266.42,137.69,257.82,138.55,249.03,138.79z M319.98,119.53v12.49
		c9.1-7.21,14.47-15.73,14.54-24.78v-0.09C330.7,111.6,325.83,115.76,319.98,119.53z M284.63,134.13v14.42
		c9.5-2.54,18.09-5.92,25.35-9.94v-13.47C302.32,128.87,293.78,131.89,284.63,134.13z M319.98,144.44v12.49
		c9.1-7.21,14.47-15.73,14.54-24.78v-0.09C330.7,136.51,325.83,140.67,319.98,144.44z M284.63,159.04v14.42
		c9.5-2.54,18.09-5.92,25.35-9.94v-13.48C302.32,153.77,293.78,156.8,284.63,159.04z M249.03,163.7v14.9
		c8.9-0.29,17.5-1.28,25.6-2.84v-14.61C266.42,162.6,257.82,163.46,249.03,163.7z M319.98,169.35v12.48
		c9.1-7.21,14.47-15.73,14.54-24.78v-0.08C330.7,161.42,325.83,165.58,319.98,169.35z M284.63,183.95v14.41
		c9.5-2.54,18.09-5.92,25.35-9.94v-13.46C302.32,178.69,293.78,181.71,284.63,183.95z M249.03,188.61v14.89
		c8.9-0.29,17.5-1.28,25.6-2.84v-14.6C266.42,187.51,257.82,188.37,249.03,188.61z M319.98,194.25v12.49
		c9.1-7.21,14.47-15.73,14.54-24.78v-0.09C330.7,186.32,325.83,190.48,319.98,194.25z M284.63,208.85v14.42
		c9.5-2.54,18.09-5.92,25.35-9.94v-13.47C302.32,203.59,293.78,206.61,284.63,208.85z M249.03,213.51v14.9
		c8.9-0.29,17.5-1.28,25.6-2.84v-14.61C266.42,212.41,257.82,213.27,249.03,213.51z M319.98,244.07v12.49
		c9.1-7.21,14.47-15.73,14.54-24.78v-0.09C330.7,236.14,325.83,240.3,319.98,244.07z M249.03,263.33v14.9
		c8.9-0.29,17.5-1.28,25.6-2.84v-14.61C266.42,262.23,257.82,263.09,249.03,263.33z M284.63,258.67v14.42
		c9.5-2.54,18.09-5.92,25.35-9.94v-13.47C302.32,253.41,293.78,256.43,284.63,258.67z M319.98,293.89v12.49
		c9.1-7.21,14.47-15.73,14.54-24.78v-0.09C330.7,285.96,325.83,290.12,319.98,293.89z M249.03,313.15v14.9
		c8.9-0.29,17.5-1.28,25.6-2.84V310.6C266.42,312.05,257.82,312.91,249.03,313.15z M284.63,308.49v14.42
		c9.5-2.54,18.09-5.92,25.35-9.94V299.5C302.32,303.23,293.78,306.25,284.63,308.49z M319.98,343.71v12.49
		c9.1-7.21,14.47-15.73,14.54-24.78v-0.09C330.7,335.78,325.83,339.94,319.98,343.71z M249.03,362.97v14.9
		c8.9-0.29,17.5-1.28,25.6-2.84v-14.61C266.42,361.87,257.82,362.73,249.03,362.97z M284.63,358.31v14.42
		c9.5-2.54,18.09-5.92,25.35-9.94v-13.47C302.32,353.05,293.78,356.07,284.63,358.31z M319.98,393.52v12.49
		c9.1-7.21,14.47-15.73,14.54-24.78v-0.09C330.7,385.59,325.83,389.75,319.98,393.52z M249.03,412.78v14.9
		c8.9-0.29,17.5-1.28,25.6-2.84v-14.61C266.42,411.68,257.82,412.54,249.03,412.78z M284.63,408.12v14.42
		c9.5-2.54,18.09-5.92,25.35-9.94v-13.48C302.32,402.85,293.78,405.88,284.63,408.12z M319.98,443.34v12.53
		c9.1-7.23,14.47-15.77,14.54-24.82v-0.09C330.7,435.41,325.83,439.57,319.98,443.34z M249.03,462.6v14.9
		c8.9-0.26,17.5-1.23,25.6-2.78v-14.67C266.42,461.5,257.82,462.36,249.03,462.6z M284.63,457.94v14.48
		c9.5-2.53,18.09-5.92,25.35-9.94v-13.54C302.32,452.67,293.78,455.7,284.63,457.94z M319.98,418.43v12.49
		c9.1-7.21,14.47-15.73,14.54-24.78v-0.09C330.7,410.5,325.83,414.66,319.98,418.43z M249.03,437.69v14.9
		c8.9-0.29,17.5-1.28,25.6-2.84v-14.61C266.42,436.59,257.82,437.45,249.03,437.69z M284.63,433.03v14.42
		c9.5-2.54,18.09-5.92,25.35-9.94v-13.47C302.32,427.77,293.78,430.79,284.63,433.03z M319.98,368.62v12.48
		c9.1-7.21,14.47-15.73,14.54-24.78v-0.08C330.7,360.69,325.83,364.85,319.98,368.62z M249.03,387.88v14.89
		c8.9-0.29,17.5-1.28,25.6-2.84v-14.6C266.42,386.78,257.82,387.64,249.03,387.88z M284.63,383.22v14.41
		c9.5-2.54,18.09-5.92,25.35-9.94v-13.47C302.32,377.95,293.78,380.98,284.63,383.22z M319.98,318.8v12.49
		c9.1-7.21,14.47-15.73,14.54-24.78v-0.09C330.7,310.87,325.83,315.03,319.98,318.8z M249.03,338.06v14.9
		c8.9-0.29,17.5-1.28,25.6-2.84v-14.61C266.42,336.96,257.82,337.82,249.03,338.06z M284.63,333.4v14.42
		c9.5-2.54,18.09-5.92,25.35-9.94V324.4C302.32,328.13,293.78,331.16,284.63,333.4z M319.98,268.98v12.49
		c9.1-7.21,14.47-15.73,14.54-24.78v-0.09C330.7,261.05,325.83,265.21,319.98,268.98z M249.03,288.24v14.9
		c8.9-0.29,17.5-1.28,25.6-2.84v-14.61C266.42,287.14,257.82,288,249.03,288.24z M284.63,283.58V298c9.5-2.54,18.09-5.92,25.35-9.94
		v-13.48C302.32,278.31,293.78,281.34,284.63,283.58z M249.03,238.42v14.9c8.9-0.29,17.5-1.28,25.6-2.84v-14.61
		C266.42,237.32,257.82,238.18,249.03,238.42z M284.63,233.76v14.42c9.5-2.54,18.09-5.92,25.35-9.94v-13.48
		C302.32,228.49,293.78,231.52,284.63,233.76z M319.98,219.16v12.49c9.1-7.21,14.47-15.73,14.54-24.78v-0.09
		C330.7,211.23,325.83,215.39,319.98,219.16z M228.39,33.74c-2.95,1.23-4.42,3.03-4.42,5.42c0,1.69,0.93,3.2,2.79,4.53
		s4.22,2.48,7.07,3.46c1.46,0.5,3.2,1.07,5.2,1.69V31.93C234.59,32.04,231.04,32.64,228.39,33.74z M216.67,27.79
		c6-2.52,13.46-3.88,22.36-4.08v-13c-30.74,2.31-59.67,25.91-81.95,67.05c-6.54,12.07-12.28,25.23-17.17,39.27h99.12V85.27
		c-0.81,0.02-1.64,0.03-2.48,0.03c-6.22,0-12.38-0.57-18.49-1.71s-10.5-2.42-13.2-3.83l8.24-7.75c2.17,1.03,5.56,2.11,10.17,3.22
		c4.6,1.12,9.03,1.67,13.28,1.67c0.85,0,1.68-0.02,2.48-0.05V59.09c-1.51-0.42-3.16-0.87-4.97-1.34c-5.9-1.52-9.94-2.66-12.11-3.43
		c-10.05-3.53-15.07-8.42-15.07-14.67C206.88,34.49,210.14,30.54,216.67,27.79z M136.62,127.03
		c-10.51,33.78-16.31,72.06-16.75,112.02h119.16V127.03H136.62z M119.87,249.05c0.44,39.96,6.24,78.24,16.75,112.02h102.41V249.05
		H119.87z M139.91,371.07c4.89,14.03,10.63,27.19,17.17,39.26c22.28,41.15,51.21,64.75,81.95,67.06V371.07H139.91z M249.03,113.88
		v14.9c8.9-0.29,17.5-1.28,25.6-2.84v-14.61C266.42,112.78,257.82,113.64,249.03,113.88z M284.63,109.22v14.42
		c9.5-2.54,18.09-5.92,25.35-9.94v-13.48C302.32,103.95,293.78,106.98,284.63,109.22z M319.98,94.62v12.49
		c9.1-7.21,14.47-15.73,14.54-24.78v-0.09C330.7,86.69,325.83,90.85,319.98,94.62z M249.03,138.79v14.9
		c8.9-0.29,17.5-1.28,25.6-2.84v-14.61C266.42,137.69,257.82,138.55,249.03,138.79z M319.98,119.53v12.49
		c9.1-7.21,14.47-15.73,14.54-24.78v-0.09C330.7,111.6,325.83,115.76,319.98,119.53z M284.63,134.13v14.42
		c9.5-2.54,18.09-5.92,25.35-9.94v-13.47C302.32,128.87,293.78,131.89,284.63,134.13z M319.98,144.44v12.49
		c9.1-7.21,14.47-15.73,14.54-24.78v-0.09C330.7,136.51,325.83,140.67,319.98,144.44z M284.63,159.04v14.42
		c9.5-2.54,18.09-5.92,25.35-9.94v-13.48C302.32,153.77,293.78,156.8,284.63,159.04z M249.03,163.7v14.9
		c8.9-0.29,17.5-1.28,25.6-2.84v-14.61C266.42,162.6,257.82,163.46,249.03,163.7z M319.98,169.35v12.48
		c9.1-7.21,14.47-15.73,14.54-24.78v-0.08C330.7,161.42,325.83,165.58,319.98,169.35z M284.63,183.95v14.41
		c9.5-2.54,18.09-5.92,25.35-9.94v-13.46C302.32,178.69,293.78,181.71,284.63,183.95z M249.03,188.61v14.89
		c8.9-0.29,17.5-1.28,25.6-2.84v-14.6C266.42,187.51,257.82,188.37,249.03,188.61z M319.98,194.25v12.49
		c9.1-7.21,14.47-15.73,14.54-24.78v-0.09C330.7,186.32,325.83,190.48,319.98,194.25z M284.63,208.85v14.42
		c9.5-2.54,18.09-5.92,25.35-9.94v-13.47C302.32,203.59,293.78,206.61,284.63,208.85z M249.03,213.51v14.9
		c8.9-0.29,17.5-1.28,25.6-2.84v-14.61C266.42,212.41,257.82,213.27,249.03,213.51z M249.03,238.42v14.9
		c8.9-0.29,17.5-1.28,25.6-2.84v-14.61C266.42,237.32,257.82,238.18,249.03,238.42z M284.63,233.76v14.42
		c9.5-2.54,18.09-5.92,25.35-9.94v-13.48C302.32,228.49,293.78,231.52,284.63,233.76z M319.98,219.16v12.49
		c9.1-7.21,14.47-15.73,14.54-24.78v-0.09C330.7,211.23,325.83,215.39,319.98,219.16z M319.98,244.07v12.49
		c9.1-7.21,14.47-15.73,14.54-24.78v-0.09C330.7,236.14,325.83,240.3,319.98,244.07z M249.03,263.33v14.9
		c8.9-0.29,17.5-1.28,25.6-2.84v-14.61C266.42,262.23,257.82,263.09,249.03,263.33z M284.63,258.67v14.42
		c9.5-2.54,18.09-5.92,25.35-9.94v-13.47C302.32,253.41,293.78,256.43,284.63,258.67z M319.98,293.89v12.49
		c9.1-7.21,14.47-15.73,14.54-24.78v-0.09C330.7,285.96,325.83,290.12,319.98,293.89z M249.03,313.15v14.9
		c8.9-0.29,17.5-1.28,25.6-2.84V310.6C266.42,312.05,257.82,312.91,249.03,313.15z M284.63,308.49v14.42
		c9.5-2.54,18.09-5.92,25.35-9.94V299.5C302.32,303.23,293.78,306.25,284.63,308.49z M319.98,343.71v12.49
		c9.1-7.21,14.47-15.73,14.54-24.78v-0.09C330.7,335.78,325.83,339.94,319.98,343.71z M249.03,362.97v14.9
		c8.9-0.29,17.5-1.28,25.6-2.84v-14.61C266.42,361.87,257.82,362.73,249.03,362.97z M284.63,358.31v14.42
		c9.5-2.54,18.09-5.92,25.35-9.94v-13.47C302.32,353.05,293.78,356.07,284.63,358.31z M319.98,393.52v12.49
		c9.1-7.21,14.47-15.73,14.54-24.78v-0.09C330.7,385.59,325.83,389.75,319.98,393.52z M249.03,412.78v14.9
		c8.9-0.29,17.5-1.28,25.6-2.84v-14.61C266.42,411.68,257.82,412.54,249.03,412.78z M284.63,408.12v14.42
		c9.5-2.54,18.09-5.92,25.35-9.94v-13.48C302.32,402.85,293.78,405.88,284.63,408.12z M319.98,443.34v12.53
		c9.1-7.23,14.47-15.77,14.54-24.82v-0.09C330.7,435.41,325.83,439.57,319.98,443.34z M249.03,462.6v14.9
		c8.9-0.26,17.5-1.23,25.6-2.78v-14.67C266.42,461.5,257.82,462.36,249.03,462.6z M284.63,457.94v14.48
		c9.5-2.53,18.09-5.92,25.35-9.94v-13.54C302.32,452.67,293.78,455.7,284.63,457.94z M319.98,418.43v12.49
		c9.1-7.21,14.47-15.73,14.54-24.78v-0.09C330.7,410.5,325.83,414.66,319.98,418.43z M249.03,437.69v14.9
		c8.9-0.29,17.5-1.28,25.6-2.84v-14.61C266.42,436.59,257.82,437.45,249.03,437.69z M284.63,433.03v14.42
		c9.5-2.54,18.09-5.92,25.35-9.94v-13.47C302.32,427.77,293.78,430.79,284.63,433.03z M319.98,368.62v12.48
		c9.1-7.21,14.47-15.73,14.54-24.78v-0.08C330.7,360.69,325.83,364.85,319.98,368.62z M249.03,387.88v14.89
		c8.9-0.29,17.5-1.28,25.6-2.84v-14.6C266.42,386.78,257.82,387.64,249.03,387.88z M284.63,383.22v14.41
		c9.5-2.54,18.09-5.92,25.35-9.94v-13.47C302.32,377.95,293.78,380.98,284.63,383.22z M319.98,318.8v12.49
		c9.1-7.21,14.47-15.73,14.54-24.78v-0.09C330.7,310.87,325.83,315.03,319.98,318.8z M249.03,338.06v14.9
		c8.9-0.29,17.5-1.28,25.6-2.84v-14.61C266.42,336.96,257.82,337.82,249.03,338.06z M284.63,333.4v14.42
		c9.5-2.54,18.09-5.92,25.35-9.94V324.4C302.32,328.13,293.78,331.16,284.63,333.4z M319.98,268.98v12.49
		c9.1-7.21,14.47-15.73,14.54-24.78v-0.09C330.7,261.05,325.83,265.21,319.98,268.98z M249.03,288.24v14.9
		c8.9-0.29,17.5-1.28,25.6-2.84v-14.61C266.42,287.14,257.82,288,249.03,288.24z M284.63,283.58V298c9.5-2.54,18.09-5.92,25.35-9.94
		v-13.48C302.32,278.31,293.78,281.34,284.63,283.58z M228.39,33.74c-2.95,1.23-4.42,3.03-4.42,5.42c0,1.69,0.93,3.2,2.79,4.53
		s4.22,2.48,7.07,3.46c1.46,0.5,3.2,1.07,5.2,1.69V31.93C234.59,32.04,231.04,32.64,228.39,33.74z M216.67,27.79
		c6-2.52,13.46-3.88,22.36-4.08v-13c-30.74,2.31-59.67,25.91-81.95,67.05c-6.54,12.07-12.28,25.23-17.17,39.27h99.12V85.27
		c-0.81,0.02-1.64,0.03-2.48,0.03c-6.22,0-12.38-0.57-18.49-1.71s-10.5-2.42-13.2-3.83l8.24-7.75c2.17,1.03,5.56,2.11,10.17,3.22
		c4.6,1.12,9.03,1.67,13.28,1.67c0.85,0,1.68-0.02,2.48-0.05V59.09c-1.51-0.42-3.16-0.87-4.97-1.34c-5.9-1.52-9.94-2.66-12.11-3.43
		c-10.05-3.53-15.07-8.42-15.07-14.67C206.88,34.49,210.14,30.54,216.67,27.79z M136.62,127.03
		c-10.51,33.78-16.31,72.06-16.75,112.02h119.16V127.03H136.62z M119.87,249.05c0.44,39.96,6.24,78.24,16.75,112.02h102.41V249.05
		H119.87z M139.91,371.07c4.89,14.03,10.63,27.19,17.17,39.26c22.28,41.15,51.21,64.75,81.95,67.06V371.07H139.91z M249.03,113.88
		v14.9c8.9-0.29,17.5-1.28,25.6-2.84v-14.61C266.42,112.78,257.82,113.64,249.03,113.88z M284.63,109.22v14.42
		c9.5-2.54,18.09-5.92,25.35-9.94v-13.48C302.32,103.95,293.78,106.98,284.63,109.22z M319.98,94.62v12.49
		c9.1-7.21,14.47-15.73,14.54-24.78v-0.09C330.7,86.69,325.83,90.85,319.98,94.62z M249.03,138.79v14.9
		c8.9-0.29,17.5-1.28,25.6-2.84v-14.61C266.42,137.69,257.82,138.55,249.03,138.79z M319.98,119.53v12.49
		c9.1-7.21,14.47-15.73,14.54-24.78v-0.09C330.7,111.6,325.83,115.76,319.98,119.53z M284.63,134.13v14.42
		c9.5-2.54,18.09-5.92,25.35-9.94v-13.47C302.32,128.87,293.78,131.89,284.63,134.13z M319.98,144.44v12.49
		c9.1-7.21,14.47-15.73,14.54-24.78v-0.09C330.7,136.51,325.83,140.67,319.98,144.44z M284.63,159.04v14.42
		c9.5-2.54,18.09-5.92,25.35-9.94v-13.48C302.32,153.77,293.78,156.8,284.63,159.04z M249.03,163.7v14.9
		c8.9-0.29,17.5-1.28,25.6-2.84v-14.61C266.42,162.6,257.82,163.46,249.03,163.7z M319.98,169.35v12.48
		c9.1-7.21,14.47-15.73,14.54-24.78v-0.08C330.7,161.42,325.83,165.58,319.98,169.35z M284.63,183.95v14.41
		c9.5-2.54,18.09-5.92,25.35-9.94v-13.46C302.32,178.69,293.78,181.71,284.63,183.95z M249.03,188.61v14.89
		c8.9-0.29,17.5-1.28,25.6-2.84v-14.6C266.42,187.51,257.82,188.37,249.03,188.61z M319.98,194.25v12.49
		c9.1-7.21,14.47-15.73,14.54-24.78v-0.09C330.7,186.32,325.83,190.48,319.98,194.25z M284.63,208.85v14.42
		c9.5-2.54,18.09-5.92,25.35-9.94v-13.47C302.32,203.59,293.78,206.61,284.63,208.85z M249.03,213.51v14.9
		c8.9-0.29,17.5-1.28,25.6-2.84v-14.61C266.42,212.41,257.82,213.27,249.03,213.51z M249.03,238.42v14.9
		c8.9-0.29,17.5-1.28,25.6-2.84v-14.61C266.42,237.32,257.82,238.18,249.03,238.42z M284.63,233.76v14.42
		c9.5-2.54,18.09-5.92,25.35-9.94v-13.48C302.32,228.49,293.78,231.52,284.63,233.76z M319.98,219.16v12.49
		c9.1-7.21,14.47-15.73,14.54-24.78v-0.09C330.7,211.23,325.83,215.39,319.98,219.16z M319.98,244.07v12.49
		c9.1-7.21,14.47-15.73,14.54-24.78v-0.09C330.7,236.14,325.83,240.3,319.98,244.07z M249.03,263.33v14.9
		c8.9-0.29,17.5-1.28,25.6-2.84v-14.61C266.42,262.23,257.82,263.09,249.03,263.33z M284.63,258.67v14.42
		c9.5-2.54,18.09-5.92,25.35-9.94v-13.47C302.32,253.41,293.78,256.43,284.63,258.67z M319.98,268.98v12.49
		c9.1-7.21,14.47-15.73,14.54-24.78v-0.09C330.7,261.05,325.83,265.21,319.98,268.98z M249.03,288.24v14.9
		c8.9-0.29,17.5-1.28,25.6-2.84v-14.61C266.42,287.14,257.82,288,249.03,288.24z M284.63,283.58V298c9.5-2.54,18.09-5.92,25.35-9.94
		v-13.48C302.32,278.31,293.78,281.34,284.63,283.58z M319.98,293.89v12.49c9.1-7.21,14.47-15.73,14.54-24.78v-0.09
		C330.7,285.96,325.83,290.12,319.98,293.89z M249.03,313.15v14.9c8.9-0.29,17.5-1.28,25.6-2.84V310.6
		C266.42,312.05,257.82,312.91,249.03,313.15z M284.63,308.49v14.42c9.5-2.54,18.09-5.92,25.35-9.94V299.5
		C302.32,303.23,293.78,306.25,284.63,308.49z M319.98,343.71v12.49c9.1-7.21,14.47-15.73,14.54-24.78v-0.09
		C330.7,335.78,325.83,339.94,319.98,343.71z M249.03,362.97v14.9c8.9-0.29,17.5-1.28,25.6-2.84v-14.61
		C266.42,361.87,257.82,362.73,249.03,362.97z M284.63,358.31v14.42c9.5-2.54,18.09-5.92,25.35-9.94v-13.47
		C302.32,353.05,293.78,356.07,284.63,358.31z M319.98,393.52v12.49c9.1-7.21,14.47-15.73,14.54-24.78v-0.09
		C330.7,385.59,325.83,389.75,319.98,393.52z M249.03,412.78v14.9c8.9-0.29,17.5-1.28,25.6-2.84v-14.61
		C266.42,411.68,257.82,412.54,249.03,412.78z M284.63,408.12v14.42c9.5-2.54,18.09-5.92,25.35-9.94v-13.48
		C302.32,402.85,293.78,405.88,284.63,408.12z M319.98,443.34v12.53c9.1-7.23,14.47-15.77,14.54-24.82v-0.09
		C330.7,435.41,325.83,439.57,319.98,443.34z M249.03,462.6v14.9c8.9-0.26,17.5-1.23,25.6-2.78v-14.67
		C266.42,461.5,257.82,462.36,249.03,462.6z M284.63,457.94v14.48c9.5-2.53,18.09-5.92,25.35-9.94v-13.54
		C302.32,452.67,293.78,455.7,284.63,457.94z M319.98,418.43v12.49c9.1-7.21,14.47-15.73,14.54-24.78v-0.09
		C330.7,410.5,325.83,414.66,319.98,418.43z M249.03,437.69v14.9c8.9-0.29,17.5-1.28,25.6-2.84v-14.61
		C266.42,436.59,257.82,437.45,249.03,437.69z M284.63,433.03v14.42c9.5-2.54,18.09-5.92,25.35-9.94v-13.47
		C302.32,427.77,293.78,430.79,284.63,433.03z M319.98,368.62v12.48c9.1-7.21,14.47-15.73,14.54-24.78v-0.08
		C330.7,360.69,325.83,364.85,319.98,368.62z M249.03,387.88v14.89c8.9-0.29,17.5-1.28,25.6-2.84v-14.6
		C266.42,386.78,257.82,387.64,249.03,387.88z M284.63,383.22v14.41c9.5-2.54,18.09-5.92,25.35-9.94v-13.47
		C302.32,377.95,293.78,380.98,284.63,383.22z M319.98,318.8v12.49c9.1-7.21,14.47-15.73,14.54-24.78v-0.09
		C330.7,310.87,325.83,315.03,319.98,318.8z M249.03,338.06v14.9c8.9-0.29,17.5-1.28,25.6-2.84v-14.61
		C266.42,336.96,257.82,337.82,249.03,338.06z M284.63,333.4v14.42c9.5-2.54,18.09-5.92,25.35-9.94V324.4
		C302.32,328.13,293.78,331.16,284.63,333.4z M228.39,33.74c-2.95,1.23-4.42,3.03-4.42,5.42c0,1.69,0.93,3.2,2.79,4.53
		s4.22,2.48,7.07,3.46c1.46,0.5,3.2,1.07,5.2,1.69V31.93C234.59,32.04,231.04,32.64,228.39,33.74z M216.67,27.79
		c6-2.52,13.46-3.88,22.36-4.08v-13c-30.74,2.31-59.67,25.91-81.95,67.05c-6.54,12.07-12.28,25.23-17.17,39.27h99.12V85.27
		c-0.81,0.02-1.64,0.03-2.48,0.03c-6.22,0-12.38-0.57-18.49-1.71s-10.5-2.42-13.2-3.83l8.24-7.75c2.17,1.03,5.56,2.11,10.17,3.22
		c4.6,1.12,9.03,1.67,13.28,1.67c0.85,0,1.68-0.02,2.48-0.05V59.09c-1.51-0.42-3.16-0.87-4.97-1.34c-5.9-1.52-9.94-2.66-12.11-3.43
		c-10.05-3.53-15.07-8.42-15.07-14.67C206.88,34.49,210.14,30.54,216.67,27.79z M136.62,127.03
		c-10.51,33.78-16.31,72.06-16.75,112.02h119.16V127.03H136.62z M119.87,249.05c0.44,39.96,6.24,78.24,16.75,112.02h102.41V249.05
		H119.87z M139.91,371.07c4.89,14.03,10.63,27.19,17.17,39.26c22.28,41.15,51.21,64.75,81.95,67.06V371.07H139.91z M249.03,113.88
		v14.9c8.9-0.29,17.5-1.28,25.6-2.84v-14.61C266.42,112.78,257.82,113.64,249.03,113.88z M284.63,109.22v14.42
		c9.5-2.54,18.09-5.92,25.35-9.94v-13.48C302.32,103.95,293.78,106.98,284.63,109.22z M319.98,94.62v12.49
		c9.1-7.21,14.47-15.73,14.54-24.78v-0.09C330.7,86.69,325.83,90.85,319.98,94.62z M249.03,138.79v14.9
		c8.9-0.29,17.5-1.28,25.6-2.84v-14.61C266.42,137.69,257.82,138.55,249.03,138.79z M319.98,119.53v12.49
		c9.1-7.21,14.47-15.73,14.54-24.78v-0.09C330.7,111.6,325.83,115.76,319.98,119.53z M284.63,134.13v14.42
		c9.5-2.54,18.09-5.92,25.35-9.94v-13.47C302.32,128.87,293.78,131.89,284.63,134.13z M319.98,144.44v12.49
		c9.1-7.21,14.47-15.73,14.54-24.78v-0.09C330.7,136.51,325.83,140.67,319.98,144.44z M284.63,159.04v14.42
		c9.5-2.54,18.09-5.92,25.35-9.94v-13.48C302.32,153.77,293.78,156.8,284.63,159.04z M249.03,163.7v14.9
		c8.9-0.29,17.5-1.28,25.6-2.84v-14.61C266.42,162.6,257.82,163.46,249.03,163.7z M319.98,169.35v12.48
		c9.1-7.21,14.47-15.73,14.54-24.78v-0.08C330.7,161.42,325.83,165.58,319.98,169.35z M284.63,183.95v14.41
		c9.5-2.54,18.09-5.92,25.35-9.94v-13.46C302.32,178.69,293.78,181.71,284.63,183.95z M249.03,188.61v14.89
		c8.9-0.29,17.5-1.28,25.6-2.84v-14.6C266.42,187.51,257.82,188.37,249.03,188.61z M319.98,194.25v12.49
		c9.1-7.21,14.47-15.73,14.54-24.78v-0.09C330.7,186.32,325.83,190.48,319.98,194.25z M284.63,208.85v14.42
		c9.5-2.54,18.09-5.92,25.35-9.94v-13.47C302.32,203.59,293.78,206.61,284.63,208.85z M249.03,213.51v14.9
		c8.9-0.29,17.5-1.28,25.6-2.84v-14.61C266.42,212.41,257.82,213.27,249.03,213.51z M249.03,238.42v14.9
		c8.9-0.29,17.5-1.28,25.6-2.84v-14.61C266.42,237.32,257.82,238.18,249.03,238.42z M284.63,233.76v14.42
		c9.5-2.54,18.09-5.92,25.35-9.94v-13.48C302.32,228.49,293.78,231.52,284.63,233.76z M319.98,219.16v12.49
		c9.1-7.21,14.47-15.73,14.54-24.78v-0.09C330.7,211.23,325.83,215.39,319.98,219.16z M319.98,244.07v12.49
		c9.1-7.21,14.47-15.73,14.54-24.78v-0.09C330.7,236.14,325.83,240.3,319.98,244.07z M249.03,263.33v14.9
		c8.9-0.29,17.5-1.28,25.6-2.84v-14.61C266.42,262.23,257.82,263.09,249.03,263.33z M284.63,258.67v14.42
		c9.5-2.54,18.09-5.92,25.35-9.94v-13.47C302.32,253.41,293.78,256.43,284.63,258.67z M319.98,268.98v12.49
		c9.1-7.21,14.47-15.73,14.54-24.78v-0.09C330.7,261.05,325.83,265.21,319.98,268.98z M249.03,288.24v14.9
		c8.9-0.29,17.5-1.28,25.6-2.84v-14.61C266.42,287.14,257.82,288,249.03,288.24z M284.63,283.58V298c9.5-2.54,18.09-5.92,25.35-9.94
		v-13.48C302.32,278.31,293.78,281.34,284.63,283.58z M319.98,293.89v12.49c9.1-7.21,14.47-15.73,14.54-24.78v-0.09
		C330.7,285.96,325.83,290.12,319.98,293.89z M249.03,313.15v14.9c8.9-0.29,17.5-1.28,25.6-2.84V310.6
		C266.42,312.05,257.82,312.91,249.03,313.15z M284.63,308.49v14.42c9.5-2.54,18.09-5.92,25.35-9.94V299.5
		C302.32,303.23,293.78,306.25,284.63,308.49z M319.98,318.8v12.49c9.1-7.21,14.47-15.73,14.54-24.78v-0.09
		C330.7,310.87,325.83,315.03,319.98,318.8z M249.03,338.06v14.9c8.9-0.29,17.5-1.28,25.6-2.84v-14.61
		C266.42,336.96,257.82,337.82,249.03,338.06z M284.63,333.4v14.42c9.5-2.54,18.09-5.92,25.35-9.94V324.4
		C302.32,328.13,293.78,331.16,284.63,333.4z M319.98,343.71v12.49c9.1-7.21,14.47-15.73,14.54-24.78v-0.09
		C330.7,335.78,325.83,339.94,319.98,343.71z M249.03,362.97v14.9c8.9-0.29,17.5-1.28,25.6-2.84v-14.61
		C266.42,361.87,257.82,362.73,249.03,362.97z M284.63,358.31v14.42c9.5-2.54,18.09-5.92,25.35-9.94v-13.47
		C302.32,353.05,293.78,356.07,284.63,358.31z M319.98,393.52v12.49c9.1-7.21,14.47-15.73,14.54-24.78v-0.09
		C330.7,385.59,325.83,389.75,319.98,393.52z M249.03,412.78v14.9c8.9-0.29,17.5-1.28,25.6-2.84v-14.61
		C266.42,411.68,257.82,412.54,249.03,412.78z M284.63,408.12v14.42c9.5-2.54,18.09-5.92,25.35-9.94v-13.48
		C302.32,402.85,293.78,405.88,284.63,408.12z M319.98,443.34v12.53c9.1-7.23,14.47-15.77,14.54-24.82v-0.09
		C330.7,435.41,325.83,439.57,319.98,443.34z M249.03,462.6v14.9c8.9-0.26,17.5-1.23,25.6-2.78v-14.67
		C266.42,461.5,257.82,462.36,249.03,462.6z M284.63,457.94v14.48c9.5-2.53,18.09-5.92,25.35-9.94v-13.54
		C302.32,452.67,293.78,455.7,284.63,457.94z M319.98,418.43v12.49c9.1-7.21,14.47-15.73,14.54-24.78v-0.09
		C330.7,410.5,325.83,414.66,319.98,418.43z M249.03,437.69v14.9c8.9-0.29,17.5-1.28,25.6-2.84v-14.61
		C266.42,436.59,257.82,437.45,249.03,437.69z M284.63,433.03v14.42c9.5-2.54,18.09-5.92,25.35-9.94v-13.47
		C302.32,427.77,293.78,430.79,284.63,433.03z M319.98,368.62v12.48c9.1-7.21,14.47-15.73,14.54-24.78v-0.08
		C330.7,360.69,325.83,364.85,319.98,368.62z M249.03,387.88v14.89c8.9-0.29,17.5-1.28,25.6-2.84v-14.6
		C266.42,386.78,257.82,387.64,249.03,387.88z M284.63,383.22v14.41c9.5-2.54,18.09-5.92,25.35-9.94v-13.47
		C302.32,377.95,293.78,380.98,284.63,383.22z M228.39,33.74c-2.95,1.23-4.42,3.03-4.42,5.42c0,1.69,0.93,3.2,2.79,4.53
		s4.22,2.48,7.07,3.46c1.46,0.5,3.2,1.07,5.2,1.69V31.93C234.59,32.04,231.04,32.64,228.39,33.74z M216.67,27.79
		c6-2.52,13.46-3.88,22.36-4.08v-13c-30.74,2.31-59.67,25.91-81.95,67.05c-6.54,12.07-12.28,25.23-17.17,39.27h99.12V85.27
		c-0.81,0.02-1.64,0.03-2.48,0.03c-6.22,0-12.38-0.57-18.49-1.71s-10.5-2.42-13.2-3.83l8.24-7.75c2.17,1.03,5.56,2.11,10.17,3.22
		c4.6,1.12,9.03,1.67,13.28,1.67c0.85,0,1.68-0.02,2.48-0.05V59.09c-1.51-0.42-3.16-0.87-4.97-1.34c-5.9-1.52-9.94-2.66-12.11-3.43
		c-10.05-3.53-15.07-8.42-15.07-14.67C206.88,34.49,210.14,30.54,216.67,27.79z M136.62,127.03
		c-10.51,33.78-16.31,72.06-16.75,112.02h119.16V127.03H136.62z M119.87,249.05c0.44,39.96,6.24,78.24,16.75,112.02h102.41V249.05
		H119.87z M139.91,371.07c4.89,14.03,10.63,27.19,17.17,39.26c22.28,41.15,51.21,64.75,81.95,67.06V371.07H139.91z M249.03,113.88
		v14.9c8.9-0.29,17.5-1.28,25.6-2.84v-14.61C266.42,112.78,257.82,113.64,249.03,113.88z M284.63,109.22v14.42
		c9.5-2.54,18.09-5.92,25.35-9.94v-13.48C302.32,103.95,293.78,106.98,284.63,109.22z M319.98,94.62v12.49
		c9.1-7.21,14.47-15.73,14.54-24.78v-0.09C330.7,86.69,325.83,90.85,319.98,94.62z M249.03,138.79v14.9
		c8.9-0.29,17.5-1.28,25.6-2.84v-14.61C266.42,137.69,257.82,138.55,249.03,138.79z M319.98,119.53v12.49
		c9.1-7.21,14.47-15.73,14.54-24.78v-0.09C330.7,111.6,325.83,115.76,319.98,119.53z M284.63,134.13v14.42
		c9.5-2.54,18.09-5.92,25.35-9.94v-13.47C302.32,128.87,293.78,131.89,284.63,134.13z M319.98,144.44v12.49
		c9.1-7.21,14.47-15.73,14.54-24.78v-0.09C330.7,136.51,325.83,140.67,319.98,144.44z M284.63,159.04v14.42
		c9.5-2.54,18.09-5.92,25.35-9.94v-13.48C302.32,153.77,293.78,156.8,284.63,159.04z M249.03,163.7v14.9
		c8.9-0.29,17.5-1.28,25.6-2.84v-14.61C266.42,162.6,257.82,163.46,249.03,163.7z M319.98,169.35v12.48
		c9.1-7.21,14.47-15.73,14.54-24.78v-0.08C330.7,161.42,325.83,165.58,319.98,169.35z M284.63,183.95v14.41
		c9.5-2.54,18.09-5.92,25.35-9.94v-13.46C302.32,178.69,293.78,181.71,284.63,183.95z M249.03,188.61v14.89
		c8.9-0.29,17.5-1.28,25.6-2.84v-14.6C266.42,187.51,257.82,188.37,249.03,188.61z M319.98,194.25v12.49
		c9.1-7.21,14.47-15.73,14.54-24.78v-0.09C330.7,186.32,325.83,190.48,319.98,194.25z M284.63,208.85v14.42
		c9.5-2.54,18.09-5.92,25.35-9.94v-13.47C302.32,203.59,293.78,206.61,284.63,208.85z M249.03,213.51v14.9
		c8.9-0.29,17.5-1.28,25.6-2.84v-14.61C266.42,212.41,257.82,213.27,249.03,213.51z M249.03,238.42v14.9
		c8.9-0.29,17.5-1.28,25.6-2.84v-14.61C266.42,237.32,257.82,238.18,249.03,238.42z M284.63,233.76v14.42
		c9.5-2.54,18.09-5.92,25.35-9.94v-13.48C302.32,228.49,293.78,231.52,284.63,233.76z M319.98,219.16v12.49
		c9.1-7.21,14.47-15.73,14.54-24.78v-0.09C330.7,211.23,325.83,215.39,319.98,219.16z M319.98,244.07v12.49
		c9.1-7.21,14.47-15.73,14.54-24.78v-0.09C330.7,236.14,325.83,240.3,319.98,244.07z M249.03,263.33v14.9
		c8.9-0.29,17.5-1.28,25.6-2.84v-14.61C266.42,262.23,257.82,263.09,249.03,263.33z M284.63,258.67v14.42
		c9.5-2.54,18.09-5.92,25.35-9.94v-13.47C302.32,253.41,293.78,256.43,284.63,258.67z M319.98,268.98v12.49
		c9.1-7.21,14.47-15.73,14.54-24.78v-0.09C330.7,261.05,325.83,265.21,319.98,268.98z M249.03,288.24v14.9
		c8.9-0.29,17.5-1.28,25.6-2.84v-14.61C266.42,287.14,257.82,288,249.03,288.24z M284.63,283.58V298c9.5-2.54,18.09-5.92,25.35-9.94
		v-13.48C302.32,278.31,293.78,281.34,284.63,283.58z M319.98,293.89v12.49c9.1-7.21,14.47-15.73,14.54-24.78v-0.09
		C330.7,285.96,325.83,290.12,319.98,293.89z M249.03,313.15v14.9c8.9-0.29,17.5-1.28,25.6-2.84V310.6
		C266.42,312.05,257.82,312.91,249.03,313.15z M284.63,308.49v14.42c9.5-2.54,18.09-5.92,25.35-9.94V299.5
		C302.32,303.23,293.78,306.25,284.63,308.49z M319.98,318.8v12.49c9.1-7.21,14.47-15.73,14.54-24.78v-0.09
		C330.7,310.87,325.83,315.03,319.98,318.8z M249.03,338.06v14.9c8.9-0.29,17.5-1.28,25.6-2.84v-14.61
		C266.42,336.96,257.82,337.82,249.03,338.06z M284.63,333.4v14.42c9.5-2.54,18.09-5.92,25.35-9.94V324.4
		C302.32,328.13,293.78,331.16,284.63,333.4z M319.98,343.71v12.49c9.1-7.21,14.47-15.73,14.54-24.78v-0.09
		C330.7,335.78,325.83,339.94,319.98,343.71z M249.03,362.97v14.9c8.9-0.29,17.5-1.28,25.6-2.84v-14.61
		C266.42,361.87,257.82,362.73,249.03,362.97z M284.63,358.31v14.42c9.5-2.54,18.09-5.92,25.35-9.94v-13.47
		C302.32,353.05,293.78,356.07,284.63,358.31z M319.98,368.62v12.48c9.1-7.21,14.47-15.73,14.54-24.78v-0.08
		C330.7,360.69,325.83,364.85,319.98,368.62z M249.03,387.88v14.89c8.9-0.29,17.5-1.28,25.6-2.84v-14.6
		C266.42,386.78,257.82,387.64,249.03,387.88z M284.63,383.22v14.41c9.5-2.54,18.09-5.92,25.35-9.94v-13.47
		C302.32,377.95,293.78,380.98,284.63,383.22z M319.98,393.52v12.49c9.1-7.21,14.47-15.73,14.54-24.78v-0.09
		C330.7,385.59,325.83,389.75,319.98,393.52z M249.03,412.78v14.9c8.9-0.29,17.5-1.28,25.6-2.84v-14.61
		C266.42,411.68,257.82,412.54,249.03,412.78z M284.63,408.12v14.42c9.5-2.54,18.09-5.92,25.35-9.94v-13.48
		C302.32,402.85,293.78,405.88,284.63,408.12z M319.98,443.34v12.53c9.1-7.23,14.47-15.77,14.54-24.82v-0.09
		C330.7,435.41,325.83,439.57,319.98,443.34z M249.03,462.6v14.9c8.9-0.26,17.5-1.23,25.6-2.78v-14.67
		C266.42,461.5,257.82,462.36,249.03,462.6z M284.63,457.94v14.48c9.5-2.53,18.09-5.92,25.35-9.94v-13.54
		C302.32,452.67,293.78,455.7,284.63,457.94z M319.98,418.43v12.49c9.1-7.21,14.47-15.73,14.54-24.78v-0.09
		C330.7,410.5,325.83,414.66,319.98,418.43z M249.03,437.69v14.9c8.9-0.29,17.5-1.28,25.6-2.84v-14.61
		C266.42,436.59,257.82,437.45,249.03,437.69z M284.63,433.03v14.42c9.5-2.54,18.09-5.92,25.35-9.94v-13.47
		C302.32,427.77,293.78,430.79,284.63,433.03z M249.03,0.06c-1.66-0.04-3.33-0.06-5-0.06c-1.67,0-3.34,0.02-5,0.06
		C152.86,1.78,77.65,48.18,35.59,117.03h93.76c5.3-15.78,11.64-30.55,18.93-44.03c24.16-44.6,56.22-70.07,90.75-72.32
		c1.24-0.08,2.5-0.13,3.75-0.15c0.41-0.01,0.83-0.01,1.25-0.01c0.42,0,0.84,0,1.25,0.01c1.25,0,2.51,0.02,3.75,0.06
		c24.46,0.66,47.34,6.17,64.9,15.68c19.73,10.68,30.59,25.23,30.59,40.96v373.82c-0.09,15.67-10.94,30.14-30.59,40.78
		c-17.56,9.51-40.44,15.02-64.9,15.68l-3.75,0.06c-0.41,0.01-0.83,0.01-1.25,0.01c-0.42,0-0.84,0-1.25-0.01
		c-1.25-0.02-2.51-0.07-3.75-0.15c-34.53-2.25-66.59-27.72-90.75-72.32c-7.29-13.48-13.63-28.25-18.93-44.03H35.54
		c42.05,68.9,117.28,115.33,203.49,117.05c1.66,0.04,3.33,0.06,5,0.06c1.67,0,3.34-0.02,5-0.06
		c132.5-2.65,239.09-110.9,239.09-244.03S381.53,2.71,249.03,0.06z M319.98,443.34v12.53c9.1-7.23,14.47-15.77,14.54-24.82v-0.09
		C330.7,435.41,325.83,439.57,319.98,443.34z M249.03,462.6v14.9c8.9-0.26,17.5-1.23,25.6-2.78v-14.67
		C266.42,461.5,257.82,462.36,249.03,462.6z M284.63,457.94v14.48c9.5-2.53,18.09-5.92,25.35-9.94v-13.54
		C302.32,452.67,293.78,455.7,284.63,457.94z M319.98,418.43v12.49c9.1-7.21,14.47-15.73,14.54-24.78v-0.09
		C330.7,410.5,325.83,414.66,319.98,418.43z M249.03,437.69v14.9c8.9-0.29,17.5-1.28,25.6-2.84v-14.61
		C266.42,436.59,257.82,437.45,249.03,437.69z M284.63,433.03v14.42c9.5-2.54,18.09-5.92,25.35-9.94v-13.47
		C302.32,427.77,293.78,430.79,284.63,433.03z M319.98,393.52v12.49c9.1-7.21,14.47-15.73,14.54-24.78v-0.09
		C330.7,385.59,325.83,389.75,319.98,393.52z M249.03,412.78v14.9c8.9-0.29,17.5-1.28,25.6-2.84v-14.61
		C266.42,411.68,257.82,412.54,249.03,412.78z M284.63,408.12v14.42c9.5-2.54,18.09-5.92,25.35-9.94v-13.48
		C302.32,402.85,293.78,405.88,284.63,408.12z M319.98,368.62v12.48c9.1-7.21,14.47-15.73,14.54-24.78v-0.08
		C330.7,360.69,325.83,364.85,319.98,368.62z M249.03,387.88v14.89c8.9-0.29,17.5-1.28,25.6-2.84v-14.6
		C266.42,386.78,257.82,387.64,249.03,387.88z M284.63,383.22v14.41c9.5-2.54,18.09-5.92,25.35-9.94v-13.47
		C302.32,377.95,293.78,380.98,284.63,383.22z M319.98,343.71v12.49c9.1-7.21,14.47-15.73,14.54-24.78v-0.09
		C330.7,335.78,325.83,339.94,319.98,343.71z M249.03,362.97v14.9c8.9-0.29,17.5-1.28,25.6-2.84v-14.61
		C266.42,361.87,257.82,362.73,249.03,362.97z M284.63,358.31v14.42c9.5-2.54,18.09-5.92,25.35-9.94v-13.47
		C302.32,353.05,293.78,356.07,284.63,358.31z M319.98,318.8v12.49c9.1-7.21,14.47-15.73,14.54-24.78v-0.09
		C330.7,310.87,325.83,315.03,319.98,318.8z M249.03,338.06v14.9c8.9-0.29,17.5-1.28,25.6-2.84v-14.61
		C266.42,336.96,257.82,337.82,249.03,338.06z M284.63,333.4v14.42c9.5-2.54,18.09-5.92,25.35-9.94V324.4
		C302.32,328.13,293.78,331.16,284.63,333.4z M319.98,293.89v12.49c9.1-7.21,14.47-15.73,14.54-24.78v-0.09
		C330.7,285.96,325.83,290.12,319.98,293.89z M249.03,313.15v14.9c8.9-0.29,17.5-1.28,25.6-2.84V310.6
		C266.42,312.05,257.82,312.91,249.03,313.15z M284.63,308.49v14.42c9.5-2.54,18.09-5.92,25.35-9.94V299.5
		C302.32,303.23,293.78,306.25,284.63,308.49z M319.98,268.98v12.49c9.1-7.21,14.47-15.73,14.54-24.78v-0.09
		C330.7,261.05,325.83,265.21,319.98,268.98z M249.03,288.24v14.9c8.9-0.29,17.5-1.28,25.6-2.84v-14.61
		C266.42,287.14,257.82,288,249.03,288.24z M284.63,283.58V298c9.5-2.54,18.09-5.92,25.35-9.94v-13.48
		C302.32,278.31,293.78,281.34,284.63,283.58z M319.98,244.07v12.49c9.1-7.21,14.47-15.73,14.54-24.78v-0.09
		C330.7,236.14,325.83,240.3,319.98,244.07z M249.03,263.33v14.9c8.9-0.29,17.5-1.28,25.6-2.84v-14.61
		C266.42,262.23,257.82,263.09,249.03,263.33z M284.63,258.67v14.42c9.5-2.54,18.09-5.92,25.35-9.94v-13.47
		C302.32,253.41,293.78,256.43,284.63,258.67z M249.03,238.42v14.9c8.9-0.29,17.5-1.28,25.6-2.84v-14.61
		C266.42,237.32,257.82,238.18,249.03,238.42z M284.63,233.76v14.42c9.5-2.54,18.09-5.92,25.35-9.94v-13.48
		C302.32,228.49,293.78,231.52,284.63,233.76z M319.98,219.16v12.49c9.1-7.21,14.47-15.73,14.54-24.78v-0.09
		C330.7,211.23,325.83,215.39,319.98,219.16z M319.98,194.25v12.49c9.1-7.21,14.47-15.73,14.54-24.78v-0.09
		C330.7,186.32,325.83,190.48,319.98,194.25z M284.63,208.85v14.42c9.5-2.54,18.09-5.92,25.35-9.94v-13.47
		C302.32,203.59,293.78,206.61,284.63,208.85z M249.03,213.51v14.9c8.9-0.29,17.5-1.28,25.6-2.84v-14.61
		C266.42,212.41,257.82,213.27,249.03,213.51z M319.98,169.35v12.48c9.1-7.21,14.47-15.73,14.54-24.78v-0.08
		C330.7,161.42,325.83,165.58,319.98,169.35z M284.63,183.95v14.41c9.5-2.54,18.09-5.92,25.35-9.94v-13.46
		C302.32,178.69,293.78,181.71,284.63,183.95z M249.03,188.61v14.89c8.9-0.29,17.5-1.28,25.6-2.84v-14.6
		C266.42,187.51,257.82,188.37,249.03,188.61z M319.98,144.44v12.49c9.1-7.21,14.47-15.73,14.54-24.78v-0.09
		C330.7,136.51,325.83,140.67,319.98,144.44z M284.63,159.04v14.42c9.5-2.54,18.09-5.92,25.35-9.94v-13.48
		C302.32,153.77,293.78,156.8,284.63,159.04z M249.03,163.7v14.9c8.9-0.29,17.5-1.28,25.6-2.84v-14.61
		C266.42,162.6,257.82,163.46,249.03,163.7z M249.03,138.79v14.9c8.9-0.29,17.5-1.28,25.6-2.84v-14.61
		C266.42,137.69,257.82,138.55,249.03,138.79z M319.98,119.53v12.49c9.1-7.21,14.47-15.73,14.54-24.78v-0.09
		C330.7,111.6,325.83,115.76,319.98,119.53z M284.63,134.13v14.42c9.5-2.54,18.09-5.92,25.35-9.94v-13.47
		C302.32,128.87,293.78,131.89,284.63,134.13z M249.03,113.88v14.9c8.9-0.29,17.5-1.28,25.6-2.84v-14.61
		C266.42,112.78,257.82,113.64,249.03,113.88z M284.63,109.22v14.42c9.5-2.54,18.09-5.92,25.35-9.94v-13.48
		C302.32,103.95,293.78,106.98,284.63,109.22z M319.98,94.62v12.49c9.1-7.21,14.47-15.73,14.54-24.78v-0.09
		C330.7,86.69,325.83,90.85,319.98,94.62z M139.91,371.07c4.89,14.03,10.63,27.19,17.17,39.26c22.28,41.15,51.21,64.75,81.95,67.06
		V371.07H139.91z M119.87,249.05c0.44,39.96,6.24,78.24,16.75,112.02h102.41V249.05H119.87z M136.62,127.03
		c-10.51,33.78-16.31,72.06-16.75,112.02h119.16V127.03H136.62z M228.39,33.74c-2.95,1.23-4.42,3.03-4.42,5.42
		c0,1.69,0.93,3.2,2.79,4.53s4.22,2.48,7.07,3.46c1.46,0.5,3.2,1.07,5.2,1.69V31.93C234.59,32.04,231.04,32.64,228.39,33.74z
		 M216.67,27.79c6-2.52,13.46-3.88,22.36-4.08v-13c-30.74,2.31-59.67,25.91-81.95,67.05c-6.54,12.07-12.28,25.23-17.17,39.27h99.12
		V85.27c-0.81,0.02-1.64,0.03-2.48,0.03c-6.22,0-12.38-0.57-18.49-1.71s-10.5-2.42-13.2-3.83l8.24-7.75
		c2.17,1.03,5.56,2.11,10.17,3.22c4.6,1.12,9.03,1.67,13.28,1.67c0.85,0,1.68-0.02,2.48-0.05V59.09c-1.51-0.42-3.16-0.87-4.97-1.34
		c-5.9-1.52-9.94-2.66-12.11-3.43c-10.05-3.53-15.07-8.42-15.07-14.67C206.88,34.49,210.14,30.54,216.67,27.79z M319.98,393.52
		v12.49c9.1-7.21,14.47-15.73,14.54-24.78v-0.09C330.7,385.59,325.83,389.75,319.98,393.52z M249.03,412.78v14.9
		c8.9-0.29,17.5-1.28,25.6-2.84v-14.61C266.42,411.68,257.82,412.54,249.03,412.78z M284.63,408.12v14.42
		c9.5-2.54,18.09-5.92,25.35-9.94v-13.48C302.32,402.85,293.78,405.88,284.63,408.12z M319.98,443.34v12.53
		c9.1-7.23,14.47-15.77,14.54-24.82v-0.09C330.7,435.41,325.83,439.57,319.98,443.34z M249.03,462.6v14.9
		c8.9-0.26,17.5-1.23,25.6-2.78v-14.67C266.42,461.5,257.82,462.36,249.03,462.6z M284.63,457.94v14.48
		c9.5-2.53,18.09-5.92,25.35-9.94v-13.54C302.32,452.67,293.78,455.7,284.63,457.94z M319.98,418.43v12.49
		c9.1-7.21,14.47-15.73,14.54-24.78v-0.09C330.7,410.5,325.83,414.66,319.98,418.43z M249.03,437.69v14.9
		c8.9-0.29,17.5-1.28,25.6-2.84v-14.61C266.42,436.59,257.82,437.45,249.03,437.69z M284.63,433.03v14.42
		c9.5-2.54,18.09-5.92,25.35-9.94v-13.47C302.32,427.77,293.78,430.79,284.63,433.03z M319.98,368.62v12.48
		c9.1-7.21,14.47-15.73,14.54-24.78v-0.08C330.7,360.69,325.83,364.85,319.98,368.62z M249.03,387.88v14.89
		c8.9-0.29,17.5-1.28,25.6-2.84v-14.6C266.42,386.78,257.82,387.64,249.03,387.88z M284.63,383.22v14.41
		c9.5-2.54,18.09-5.92,25.35-9.94v-13.47C302.32,377.95,293.78,380.98,284.63,383.22z M319.98,343.71v12.49
		c9.1-7.21,14.47-15.73,14.54-24.78v-0.09C330.7,335.78,325.83,339.94,319.98,343.71z M249.03,362.97v14.9
		c8.9-0.29,17.5-1.28,25.6-2.84v-14.61C266.42,361.87,257.82,362.73,249.03,362.97z M284.63,358.31v14.42
		c9.5-2.54,18.09-5.92,25.35-9.94v-13.47C302.32,353.05,293.78,356.07,284.63,358.31z M319.98,318.8v12.49
		c9.1-7.21,14.47-15.73,14.54-24.78v-0.09C330.7,310.87,325.83,315.03,319.98,318.8z M249.03,338.06v14.9
		c8.9-0.29,17.5-1.28,25.6-2.84v-14.61C266.42,336.96,257.82,337.82,249.03,338.06z M284.63,333.4v14.42
		c9.5-2.54,18.09-5.92,25.35-9.94V324.4C302.32,328.13,293.78,331.16,284.63,333.4z M319.98,293.89v12.49
		c9.1-7.21,14.47-15.73,14.54-24.78v-0.09C330.7,285.96,325.83,290.12,319.98,293.89z M249.03,313.15v14.9
		c8.9-0.29,17.5-1.28,25.6-2.84V310.6C266.42,312.05,257.82,312.91,249.03,313.15z M284.63,308.49v14.42
		c9.5-2.54,18.09-5.92,25.35-9.94V299.5C302.32,303.23,293.78,306.25,284.63,308.49z M319.98,268.98v12.49
		c9.1-7.21,14.47-15.73,14.54-24.78v-0.09C330.7,261.05,325.83,265.21,319.98,268.98z M249.03,288.24v14.9
		c8.9-0.29,17.5-1.28,25.6-2.84v-14.61C266.42,287.14,257.82,288,249.03,288.24z M284.63,283.58V298c9.5-2.54,18.09-5.92,25.35-9.94
		v-13.48C302.32,278.31,293.78,281.34,284.63,283.58z M319.98,244.07v12.49c9.1-7.21,14.47-15.73,14.54-24.78v-0.09
		C330.7,236.14,325.83,240.3,319.98,244.07z M249.03,263.33v14.9c8.9-0.29,17.5-1.28,25.6-2.84v-14.61
		C266.42,262.23,257.82,263.09,249.03,263.33z M284.63,258.67v14.42c9.5-2.54,18.09-5.92,25.35-9.94v-13.47
		C302.32,253.41,293.78,256.43,284.63,258.67z M249.03,238.42v14.9c8.9-0.29,17.5-1.28,25.6-2.84v-14.61
		C266.42,237.32,257.82,238.18,249.03,238.42z M284.63,233.76v14.42c9.5-2.54,18.09-5.92,25.35-9.94v-13.48
		C302.32,228.49,293.78,231.52,284.63,233.76z M319.98,219.16v12.49c9.1-7.21,14.47-15.73,14.54-24.78v-0.09
		C330.7,211.23,325.83,215.39,319.98,219.16z M319.98,194.25v12.49c9.1-7.21,14.47-15.73,14.54-24.78v-0.09
		C330.7,186.32,325.83,190.48,319.98,194.25z M284.63,208.85v14.42c9.5-2.54,18.09-5.92,25.35-9.94v-13.47
		C302.32,203.59,293.78,206.61,284.63,208.85z M249.03,213.51v14.9c8.9-0.29,17.5-1.28,25.6-2.84v-14.61
		C266.42,212.41,257.82,213.27,249.03,213.51z M319.98,169.35v12.48c9.1-7.21,14.47-15.73,14.54-24.78v-0.08
		C330.7,161.42,325.83,165.58,319.98,169.35z M284.63,183.95v14.41c9.5-2.54,18.09-5.92,25.35-9.94v-13.46
		C302.32,178.69,293.78,181.71,284.63,183.95z M249.03,188.61v14.89c8.9-0.29,17.5-1.28,25.6-2.84v-14.6
		C266.42,187.51,257.82,188.37,249.03,188.61z M319.98,144.44v12.49c9.1-7.21,14.47-15.73,14.54-24.78v-0.09
		C330.7,136.51,325.83,140.67,319.98,144.44z M284.63,159.04v14.42c9.5-2.54,18.09-5.92,25.35-9.94v-13.48
		C302.32,153.77,293.78,156.8,284.63,159.04z M249.03,163.7v14.9c8.9-0.29,17.5-1.28,25.6-2.84v-14.61
		C266.42,162.6,257.82,163.46,249.03,163.7z M249.03,138.79v14.9c8.9-0.29,17.5-1.28,25.6-2.84v-14.61
		C266.42,137.69,257.82,138.55,249.03,138.79z M319.98,119.53v12.49c9.1-7.21,14.47-15.73,14.54-24.78v-0.09
		C330.7,111.6,325.83,115.76,319.98,119.53z M284.63,134.13v14.42c9.5-2.54,18.09-5.92,25.35-9.94v-13.47
		C302.32,128.87,293.78,131.89,284.63,134.13z M249.03,113.88v14.9c8.9-0.29,17.5-1.28,25.6-2.84v-14.61
		C266.42,112.78,257.82,113.64,249.03,113.88z M284.63,109.22v14.42c9.5-2.54,18.09-5.92,25.35-9.94v-13.48
		C302.32,103.95,293.78,106.98,284.63,109.22z M319.98,94.62v12.49c9.1-7.21,14.47-15.73,14.54-24.78v-0.09
		C330.7,86.69,325.83,90.85,319.98,94.62z M139.91,371.07c4.89,14.03,10.63,27.19,17.17,39.26c22.28,41.15,51.21,64.75,81.95,67.06
		V371.07H139.91z M119.87,249.05c0.44,39.96,6.24,78.24,16.75,112.02h102.41V249.05H119.87z M136.62,127.03
		c-10.51,33.78-16.31,72.06-16.75,112.02h119.16V127.03H136.62z M228.39,33.74c-2.95,1.23-4.42,3.03-4.42,5.42
		c0,1.69,0.93,3.2,2.79,4.53s4.22,2.48,7.07,3.46c1.46,0.5,3.2,1.07,5.2,1.69V31.93C234.59,32.04,231.04,32.64,228.39,33.74z
		 M216.67,27.79c6-2.52,13.46-3.88,22.36-4.08v-13c-30.74,2.31-59.67,25.91-81.95,67.05c-6.54,12.07-12.28,25.23-17.17,39.27h99.12
		V85.27c-0.81,0.02-1.64,0.03-2.48,0.03c-6.22,0-12.38-0.57-18.49-1.71s-10.5-2.42-13.2-3.83l8.24-7.75
		c2.17,1.03,5.56,2.11,10.17,3.22c4.6,1.12,9.03,1.67,13.28,1.67c0.85,0,1.68-0.02,2.48-0.05V59.09c-1.51-0.42-3.16-0.87-4.97-1.34
		c-5.9-1.52-9.94-2.66-12.11-3.43c-10.05-3.53-15.07-8.42-15.07-14.67C206.88,34.49,210.14,30.54,216.67,27.79z M319.98,343.71
		v12.49c9.1-7.21,14.47-15.73,14.54-24.78v-0.09C330.7,335.78,325.83,339.94,319.98,343.71z M249.03,362.97v14.9
		c8.9-0.29,17.5-1.28,25.6-2.84v-14.61C266.42,361.87,257.82,362.73,249.03,362.97z M284.63,358.31v14.42
		c9.5-2.54,18.09-5.92,25.35-9.94v-13.47C302.32,353.05,293.78,356.07,284.63,358.31z M319.98,393.52v12.49
		c9.1-7.21,14.47-15.73,14.54-24.78v-0.09C330.7,385.59,325.83,389.75,319.98,393.52z M249.03,412.78v14.9
		c8.9-0.29,17.5-1.28,25.6-2.84v-14.61C266.42,411.68,257.82,412.54,249.03,412.78z M284.63,408.12v14.42
		c9.5-2.54,18.09-5.92,25.35-9.94v-13.48C302.32,402.85,293.78,405.88,284.63,408.12z M319.98,443.34v12.53
		c9.1-7.23,14.47-15.77,14.54-24.82v-0.09C330.7,435.41,325.83,439.57,319.98,443.34z M249.03,462.6v14.9
		c8.9-0.26,17.5-1.23,25.6-2.78v-14.67C266.42,461.5,257.82,462.36,249.03,462.6z M284.63,457.94v14.48
		c9.5-2.53,18.09-5.92,25.35-9.94v-13.54C302.32,452.67,293.78,455.7,284.63,457.94z M319.98,418.43v12.49
		c9.1-7.21,14.47-15.73,14.54-24.78v-0.09C330.7,410.5,325.83,414.66,319.98,418.43z M249.03,437.69v14.9
		c8.9-0.29,17.5-1.28,25.6-2.84v-14.61C266.42,436.59,257.82,437.45,249.03,437.69z M284.63,433.03v14.42
		c9.5-2.54,18.09-5.92,25.35-9.94v-13.47C302.32,427.77,293.78,430.79,284.63,433.03z M319.98,368.62v12.48
		c9.1-7.21,14.47-15.73,14.54-24.78v-0.08C330.7,360.69,325.83,364.85,319.98,368.62z M249.03,387.88v14.89
		c8.9-0.29,17.5-1.28,25.6-2.84v-14.6C266.42,386.78,257.82,387.64,249.03,387.88z M284.63,383.22v14.41
		c9.5-2.54,18.09-5.92,25.35-9.94v-13.47C302.32,377.95,293.78,380.98,284.63,383.22z M319.98,318.8v12.49
		c9.1-7.21,14.47-15.73,14.54-24.78v-0.09C330.7,310.87,325.83,315.03,319.98,318.8z M249.03,338.06v14.9
		c8.9-0.29,17.5-1.28,25.6-2.84v-14.61C266.42,336.96,257.82,337.82,249.03,338.06z M284.63,333.4v14.42
		c9.5-2.54,18.09-5.92,25.35-9.94V324.4C302.32,328.13,293.78,331.16,284.63,333.4z M319.98,293.89v12.49
		c9.1-7.21,14.47-15.73,14.54-24.78v-0.09C330.7,285.96,325.83,290.12,319.98,293.89z M249.03,313.15v14.9
		c8.9-0.29,17.5-1.28,25.6-2.84V310.6C266.42,312.05,257.82,312.91,249.03,313.15z M284.63,308.49v14.42
		c9.5-2.54,18.09-5.92,25.35-9.94V299.5C302.32,303.23,293.78,306.25,284.63,308.49z M319.98,268.98v12.49
		c9.1-7.21,14.47-15.73,14.54-24.78v-0.09C330.7,261.05,325.83,265.21,319.98,268.98z M249.03,288.24v14.9
		c8.9-0.29,17.5-1.28,25.6-2.84v-14.61C266.42,287.14,257.82,288,249.03,288.24z M284.63,283.58V298c9.5-2.54,18.09-5.92,25.35-9.94
		v-13.48C302.32,278.31,293.78,281.34,284.63,283.58z M319.98,244.07v12.49c9.1-7.21,14.47-15.73,14.54-24.78v-0.09
		C330.7,236.14,325.83,240.3,319.98,244.07z M249.03,263.33v14.9c8.9-0.29,17.5-1.28,25.6-2.84v-14.61
		C266.42,262.23,257.82,263.09,249.03,263.33z M284.63,258.67v14.42c9.5-2.54,18.09-5.92,25.35-9.94v-13.47
		C302.32,253.41,293.78,256.43,284.63,258.67z M249.03,238.42v14.9c8.9-0.29,17.5-1.28,25.6-2.84v-14.61
		C266.42,237.32,257.82,238.18,249.03,238.42z M284.63,233.76v14.42c9.5-2.54,18.09-5.92,25.35-9.94v-13.48
		C302.32,228.49,293.78,231.52,284.63,233.76z M319.98,219.16v12.49c9.1-7.21,14.47-15.73,14.54-24.78v-0.09
		C330.7,211.23,325.83,215.39,319.98,219.16z M319.98,194.25v12.49c9.1-7.21,14.47-15.73,14.54-24.78v-0.09
		C330.7,186.32,325.83,190.48,319.98,194.25z M284.63,208.85v14.42c9.5-2.54,18.09-5.92,25.35-9.94v-13.47
		C302.32,203.59,293.78,206.61,284.63,208.85z M249.03,213.51v14.9c8.9-0.29,17.5-1.28,25.6-2.84v-14.61
		C266.42,212.41,257.82,213.27,249.03,213.51z M319.98,169.35v12.48c9.1-7.21,14.47-15.73,14.54-24.78v-0.08
		C330.7,161.42,325.83,165.58,319.98,169.35z M284.63,183.95v14.41c9.5-2.54,18.09-5.92,25.35-9.94v-13.46
		C302.32,178.69,293.78,181.71,284.63,183.95z M249.03,188.61v14.89c8.9-0.29,17.5-1.28,25.6-2.84v-14.6
		C266.42,187.51,257.82,188.37,249.03,188.61z M319.98,144.44v12.49c9.1-7.21,14.47-15.73,14.54-24.78v-0.09
		C330.7,136.51,325.83,140.67,319.98,144.44z M284.63,159.04v14.42c9.5-2.54,18.09-5.92,25.35-9.94v-13.48
		C302.32,153.77,293.78,156.8,284.63,159.04z M249.03,163.7v14.9c8.9-0.29,17.5-1.28,25.6-2.84v-14.61
		C266.42,162.6,257.82,163.46,249.03,163.7z M249.03,138.79v14.9c8.9-0.29,17.5-1.28,25.6-2.84v-14.61
		C266.42,137.69,257.82,138.55,249.03,138.79z M319.98,119.53v12.49c9.1-7.21,14.47-15.73,14.54-24.78v-0.09
		C330.7,111.6,325.83,115.76,319.98,119.53z M284.63,134.13v14.42c9.5-2.54,18.09-5.92,25.35-9.94v-13.47
		C302.32,128.87,293.78,131.89,284.63,134.13z M249.03,113.88v14.9c8.9-0.29,17.5-1.28,25.6-2.84v-14.61
		C266.42,112.78,257.82,113.64,249.03,113.88z M284.63,109.22v14.42c9.5-2.54,18.09-5.92,25.35-9.94v-13.48
		C302.32,103.95,293.78,106.98,284.63,109.22z M319.98,94.62v12.49c9.1-7.21,14.47-15.73,14.54-24.78v-0.09
		C330.7,86.69,325.83,90.85,319.98,94.62z M139.91,371.07c4.89,14.03,10.63,27.19,17.17,39.26c22.28,41.15,51.21,64.75,81.95,67.06
		V371.07H139.91z M119.87,249.05c0.44,39.96,6.24,78.24,16.75,112.02h102.41V249.05H119.87z M136.62,127.03
		c-10.51,33.78-16.31,72.06-16.75,112.02h119.16V127.03H136.62z M228.39,33.74c-2.95,1.23-4.42,3.03-4.42,5.42
		c0,1.69,0.93,3.2,2.79,4.53s4.22,2.48,7.07,3.46c1.46,0.5,3.2,1.07,5.2,1.69V31.93C234.59,32.04,231.04,32.64,228.39,33.74z
		 M216.67,27.79c6-2.52,13.46-3.88,22.36-4.08v-13c-30.74,2.31-59.67,25.91-81.95,67.05c-6.54,12.07-12.28,25.23-17.17,39.27h99.12
		V85.27c-0.81,0.02-1.64,0.03-2.48,0.03c-6.22,0-12.38-0.57-18.49-1.71s-10.5-2.42-13.2-3.83l8.24-7.75
		c2.17,1.03,5.56,2.11,10.17,3.22c4.6,1.12,9.03,1.67,13.28,1.67c0.85,0,1.68-0.02,2.48-0.05V59.09c-1.51-0.42-3.16-0.87-4.97-1.34
		c-5.9-1.52-9.94-2.66-12.11-3.43c-10.05-3.53-15.07-8.42-15.07-14.67C206.88,34.49,210.14,30.54,216.67,27.79z M319.98,293.89
		v12.49c9.1-7.21,14.47-15.73,14.54-24.78v-0.09C330.7,285.96,325.83,290.12,319.98,293.89z M249.03,313.15v14.9
		c8.9-0.29,17.5-1.28,25.6-2.84V310.6C266.42,312.05,257.82,312.91,249.03,313.15z M284.63,308.49v14.42
		c9.5-2.54,18.09-5.92,25.35-9.94V299.5C302.32,303.23,293.78,306.25,284.63,308.49z M319.98,343.71v12.49
		c9.1-7.21,14.47-15.73,14.54-24.78v-0.09C330.7,335.78,325.83,339.94,319.98,343.71z M249.03,362.97v14.9
		c8.9-0.29,17.5-1.28,25.6-2.84v-14.61C266.42,361.87,257.82,362.73,249.03,362.97z M284.63,358.31v14.42
		c9.5-2.54,18.09-5.92,25.35-9.94v-13.47C302.32,353.05,293.78,356.07,284.63,358.31z M319.98,393.52v12.49
		c9.1-7.21,14.47-15.73,14.54-24.78v-0.09C330.7,385.59,325.83,389.75,319.98,393.52z M249.03,412.78v14.9
		c8.9-0.29,17.5-1.28,25.6-2.84v-14.61C266.42,411.68,257.82,412.54,249.03,412.78z M284.63,408.12v14.42
		c9.5-2.54,18.09-5.92,25.35-9.94v-13.48C302.32,402.85,293.78,405.88,284.63,408.12z M319.98,443.34v12.53
		c9.1-7.23,14.47-15.77,14.54-24.82v-0.09C330.7,435.41,325.83,439.57,319.98,443.34z M249.03,462.6v14.9
		c8.9-0.26,17.5-1.23,25.6-2.78v-14.67C266.42,461.5,257.82,462.36,249.03,462.6z M284.63,457.94v14.48
		c9.5-2.53,18.09-5.92,25.35-9.94v-13.54C302.32,452.67,293.78,455.7,284.63,457.94z M319.98,418.43v12.49
		c9.1-7.21,14.47-15.73,14.54-24.78v-0.09C330.7,410.5,325.83,414.66,319.98,418.43z M249.03,437.69v14.9
		c8.9-0.29,17.5-1.28,25.6-2.84v-14.61C266.42,436.59,257.82,437.45,249.03,437.69z M284.63,433.03v14.42
		c9.5-2.54,18.09-5.92,25.35-9.94v-13.47C302.32,427.77,293.78,430.79,284.63,433.03z M319.98,368.62v12.48
		c9.1-7.21,14.47-15.73,14.54-24.78v-0.08C330.7,360.69,325.83,364.85,319.98,368.62z M249.03,387.88v14.89
		c8.9-0.29,17.5-1.28,25.6-2.84v-14.6C266.42,386.78,257.82,387.64,249.03,387.88z M284.63,383.22v14.41
		c9.5-2.54,18.09-5.92,25.35-9.94v-13.47C302.32,377.95,293.78,380.98,284.63,383.22z M319.98,318.8v12.49
		c9.1-7.21,14.47-15.73,14.54-24.78v-0.09C330.7,310.87,325.83,315.03,319.98,318.8z M249.03,338.06v14.9
		c8.9-0.29,17.5-1.28,25.6-2.84v-14.61C266.42,336.96,257.82,337.82,249.03,338.06z M284.63,333.4v14.42
		c9.5-2.54,18.09-5.92,25.35-9.94V324.4C302.32,328.13,293.78,331.16,284.63,333.4z M319.98,268.98v12.49
		c9.1-7.21,14.47-15.73,14.54-24.78v-0.09C330.7,261.05,325.83,265.21,319.98,268.98z M249.03,288.24v14.9
		c8.9-0.29,17.5-1.28,25.6-2.84v-14.61C266.42,287.14,257.82,288,249.03,288.24z M284.63,283.58V298c9.5-2.54,18.09-5.92,25.35-9.94
		v-13.48C302.32,278.31,293.78,281.34,284.63,283.58z M319.98,244.07v12.49c9.1-7.21,14.47-15.73,14.54-24.78v-0.09
		C330.7,236.14,325.83,240.3,319.98,244.07z M249.03,263.33v14.9c8.9-0.29,17.5-1.28,25.6-2.84v-14.61
		C266.42,262.23,257.82,263.09,249.03,263.33z M284.63,258.67v14.42c9.5-2.54,18.09-5.92,25.35-9.94v-13.47
		C302.32,253.41,293.78,256.43,284.63,258.67z M249.03,238.42v14.9c8.9-0.29,17.5-1.28,25.6-2.84v-14.61
		C266.42,237.32,257.82,238.18,249.03,238.42z M284.63,233.76v14.42c9.5-2.54,18.09-5.92,25.35-9.94v-13.48
		C302.32,228.49,293.78,231.52,284.63,233.76z M319.98,219.16v12.49c9.1-7.21,14.47-15.73,14.54-24.78v-0.09
		C330.7,211.23,325.83,215.39,319.98,219.16z M319.98,194.25v12.49c9.1-7.21,14.47-15.73,14.54-24.78v-0.09
		C330.7,186.32,325.83,190.48,319.98,194.25z M284.63,208.85v14.42c9.5-2.54,18.09-5.92,25.35-9.94v-13.47
		C302.32,203.59,293.78,206.61,284.63,208.85z M249.03,213.51v14.9c8.9-0.29,17.5-1.28,25.6-2.84v-14.61
		C266.42,212.41,257.82,213.27,249.03,213.51z M319.98,169.35v12.48c9.1-7.21,14.47-15.73,14.54-24.78v-0.08
		C330.7,161.42,325.83,165.58,319.98,169.35z M284.63,183.95v14.41c9.5-2.54,18.09-5.92,25.35-9.94v-13.46
		C302.32,178.69,293.78,181.71,284.63,183.95z M249.03,188.61v14.89c8.9-0.29,17.5-1.28,25.6-2.84v-14.6
		C266.42,187.51,257.82,188.37,249.03,188.61z M319.98,144.44v12.49c9.1-7.21,14.47-15.73,14.54-24.78v-0.09
		C330.7,136.51,325.83,140.67,319.98,144.44z M284.63,159.04v14.42c9.5-2.54,18.09-5.92,25.35-9.94v-13.48
		C302.32,153.77,293.78,156.8,284.63,159.04z M249.03,163.7v14.9c8.9-0.29,17.5-1.28,25.6-2.84v-14.61
		C266.42,162.6,257.82,163.46,249.03,163.7z M249.03,138.79v14.9c8.9-0.29,17.5-1.28,25.6-2.84v-14.61
		C266.42,137.69,257.82,138.55,249.03,138.79z M319.98,119.53v12.49c9.1-7.21,14.47-15.73,14.54-24.78v-0.09
		C330.7,111.6,325.83,115.76,319.98,119.53z M284.63,134.13v14.42c9.5-2.54,18.09-5.92,25.35-9.94v-13.47
		C302.32,128.87,293.78,131.89,284.63,134.13z M249.03,113.88v14.9c8.9-0.29,17.5-1.28,25.6-2.84v-14.61
		C266.42,112.78,257.82,113.64,249.03,113.88z M284.63,109.22v14.42c9.5-2.54,18.09-5.92,25.35-9.94v-13.48
		C302.32,103.95,293.78,106.98,284.63,109.22z M319.98,94.62v12.49c9.1-7.21,14.47-15.73,14.54-24.78v-0.09
		C330.7,86.69,325.83,90.85,319.98,94.62z M139.91,371.07c4.89,14.03,10.63,27.19,17.17,39.26c22.28,41.15,51.21,64.75,81.95,67.06
		V371.07H139.91z M119.87,249.05c0.44,39.96,6.24,78.24,16.75,112.02h102.41V249.05H119.87z M136.62,127.03
		c-10.51,33.78-16.31,72.06-16.75,112.02h119.16V127.03H136.62z M228.39,33.74c-2.95,1.23-4.42,3.03-4.42,5.42
		c0,1.69,0.93,3.2,2.79,4.53s4.22,2.48,7.07,3.46c1.46,0.5,3.2,1.07,5.2,1.69V31.93C234.59,32.04,231.04,32.64,228.39,33.74z
		 M216.67,27.79c6-2.52,13.46-3.88,22.36-4.08v-13c-30.74,2.31-59.67,25.91-81.95,67.05c-6.54,12.07-12.28,25.23-17.17,39.27h99.12
		V85.27c-0.81,0.02-1.64,0.03-2.48,0.03c-6.22,0-12.38-0.57-18.49-1.71s-10.5-2.42-13.2-3.83l8.24-7.75
		c2.17,1.03,5.56,2.11,10.17,3.22c4.6,1.12,9.03,1.67,13.28,1.67c0.85,0,1.68-0.02,2.48-0.05V59.09c-1.51-0.42-3.16-0.87-4.97-1.34
		c-5.9-1.52-9.94-2.66-12.11-3.43c-10.05-3.53-15.07-8.42-15.07-14.67C206.88,34.49,210.14,30.54,216.67,27.79z M319.98,244.07
		v12.49c9.1-7.21,14.47-15.73,14.54-24.78v-0.09C330.7,236.14,325.83,240.3,319.98,244.07z M249.03,263.33v14.9
		c8.9-0.29,17.5-1.28,25.6-2.84v-14.61C266.42,262.23,257.82,263.09,249.03,263.33z M284.63,258.67v14.42
		c9.5-2.54,18.09-5.92,25.35-9.94v-13.47C302.32,253.41,293.78,256.43,284.63,258.67z M319.98,293.89v12.49
		c9.1-7.21,14.47-15.73,14.54-24.78v-0.09C330.7,285.96,325.83,290.12,319.98,293.89z M249.03,313.15v14.9
		c8.9-0.29,17.5-1.28,25.6-2.84V310.6C266.42,312.05,257.82,312.91,249.03,313.15z M284.63,308.49v14.42
		c9.5-2.54,18.09-5.92,25.35-9.94V299.5C302.32,303.23,293.78,306.25,284.63,308.49z M319.98,343.71v12.49
		c9.1-7.21,14.47-15.73,14.54-24.78v-0.09C330.7,335.78,325.83,339.94,319.98,343.71z M249.03,362.97v14.9
		c8.9-0.29,17.5-1.28,25.6-2.84v-14.61C266.42,361.87,257.82,362.73,249.03,362.97z M284.63,358.31v14.42
		c9.5-2.54,18.09-5.92,25.35-9.94v-13.47C302.32,353.05,293.78,356.07,284.63,358.31z M319.98,393.52v12.49
		c9.1-7.21,14.47-15.73,14.54-24.78v-0.09C330.7,385.59,325.83,389.75,319.98,393.52z M249.03,412.78v14.9
		c8.9-0.29,17.5-1.28,25.6-2.84v-14.61C266.42,411.68,257.82,412.54,249.03,412.78z M284.63,408.12v14.42
		c9.5-2.54,18.09-5.92,25.35-9.94v-13.48C302.32,402.85,293.78,405.88,284.63,408.12z M319.98,443.34v12.53
		c9.1-7.23,14.47-15.77,14.54-24.82v-0.09C330.7,435.41,325.83,439.57,319.98,443.34z M249.03,462.6v14.9
		c8.9-0.26,17.5-1.23,25.6-2.78v-14.67C266.42,461.5,257.82,462.36,249.03,462.6z M284.63,457.94v14.48
		c9.5-2.53,18.09-5.92,25.35-9.94v-13.54C302.32,452.67,293.78,455.7,284.63,457.94z M319.98,418.43v12.49
		c9.1-7.21,14.47-15.73,14.54-24.78v-0.09C330.7,410.5,325.83,414.66,319.98,418.43z M249.03,437.69v14.9
		c8.9-0.29,17.5-1.28,25.6-2.84v-14.61C266.42,436.59,257.82,437.45,249.03,437.69z M284.63,433.03v14.42
		c9.5-2.54,18.09-5.92,25.35-9.94v-13.47C302.32,427.77,293.78,430.79,284.63,433.03z M319.98,368.62v12.48
		c9.1-7.21,14.47-15.73,14.54-24.78v-0.08C330.7,360.69,325.83,364.85,319.98,368.62z M249.03,387.88v14.89
		c8.9-0.29,17.5-1.28,25.6-2.84v-14.6C266.42,386.78,257.82,387.64,249.03,387.88z M284.63,383.22v14.41
		c9.5-2.54,18.09-5.92,25.35-9.94v-13.47C302.32,377.95,293.78,380.98,284.63,383.22z M319.98,318.8v12.49
		c9.1-7.21,14.47-15.73,14.54-24.78v-0.09C330.7,310.87,325.83,315.03,319.98,318.8z M249.03,338.06v14.9
		c8.9-0.29,17.5-1.28,25.6-2.84v-14.61C266.42,336.96,257.82,337.82,249.03,338.06z M284.63,333.4v14.42
		c9.5-2.54,18.09-5.92,25.35-9.94V324.4C302.32,328.13,293.78,331.16,284.63,333.4z M319.98,268.98v12.49
		c9.1-7.21,14.47-15.73,14.54-24.78v-0.09C330.7,261.05,325.83,265.21,319.98,268.98z M249.03,288.24v14.9
		c8.9-0.29,17.5-1.28,25.6-2.84v-14.61C266.42,287.14,257.82,288,249.03,288.24z M284.63,283.58V298c9.5-2.54,18.09-5.92,25.35-9.94
		v-13.48C302.32,278.31,293.78,281.34,284.63,283.58z M249.03,238.42v14.9c8.9-0.29,17.5-1.28,25.6-2.84v-14.61
		C266.42,237.32,257.82,238.18,249.03,238.42z M284.63,233.76v14.42c9.5-2.54,18.09-5.92,25.35-9.94v-13.48
		C302.32,228.49,293.78,231.52,284.63,233.76z M319.98,219.16v12.49c9.1-7.21,14.47-15.73,14.54-24.78v-0.09
		C330.7,211.23,325.83,215.39,319.98,219.16z M319.98,194.25v12.49c9.1-7.21,14.47-15.73,14.54-24.78v-0.09
		C330.7,186.32,325.83,190.48,319.98,194.25z M284.63,208.85v14.42c9.5-2.54,18.09-5.92,25.35-9.94v-13.47
		C302.32,203.59,293.78,206.61,284.63,208.85z M249.03,213.51v14.9c8.9-0.29,17.5-1.28,25.6-2.84v-14.61
		C266.42,212.41,257.82,213.27,249.03,213.51z M319.98,169.35v12.48c9.1-7.21,14.47-15.73,14.54-24.78v-0.08
		C330.7,161.42,325.83,165.58,319.98,169.35z M284.63,183.95v14.41c9.5-2.54,18.09-5.92,25.35-9.94v-13.46
		C302.32,178.69,293.78,181.71,284.63,183.95z M249.03,188.61v14.89c8.9-0.29,17.5-1.28,25.6-2.84v-14.6
		C266.42,187.51,257.82,188.37,249.03,188.61z M319.98,144.44v12.49c9.1-7.21,14.47-15.73,14.54-24.78v-0.09
		C330.7,136.51,325.83,140.67,319.98,144.44z M284.63,159.04v14.42c9.5-2.54,18.09-5.92,25.35-9.94v-13.48
		C302.32,153.77,293.78,156.8,284.63,159.04z M249.03,163.7v14.9c8.9-0.29,17.5-1.28,25.6-2.84v-14.61
		C266.42,162.6,257.82,163.46,249.03,163.7z M249.03,138.79v14.9c8.9-0.29,17.5-1.28,25.6-2.84v-14.61
		C266.42,137.69,257.82,138.55,249.03,138.79z M319.98,119.53v12.49c9.1-7.21,14.47-15.73,14.54-24.78v-0.09
		C330.7,111.6,325.83,115.76,319.98,119.53z M284.63,134.13v14.42c9.5-2.54,18.09-5.92,25.35-9.94v-13.47
		C302.32,128.87,293.78,131.89,284.63,134.13z M249.03,113.88v14.9c8.9-0.29,17.5-1.28,25.6-2.84v-14.61
		C266.42,112.78,257.82,113.64,249.03,113.88z M284.63,109.22v14.42c9.5-2.54,18.09-5.92,25.35-9.94v-13.48
		C302.32,103.95,293.78,106.98,284.63,109.22z M319.98,94.62v12.49c9.1-7.21,14.47-15.73,14.54-24.78v-0.09
		C330.7,86.69,325.83,90.85,319.98,94.62z M139.91,371.07c4.89,14.03,10.63,27.19,17.17,39.26c22.28,41.15,51.21,64.75,81.95,67.06
		V371.07H139.91z M119.87,249.05c0.44,39.96,6.24,78.24,16.75,112.02h102.41V249.05H119.87z M136.62,127.03
		c-10.51,33.78-16.31,72.06-16.75,112.02h119.16V127.03H136.62z M228.39,33.74c-2.95,1.23-4.42,3.03-4.42,5.42
		c0,1.69,0.93,3.2,2.79,4.53s4.22,2.48,7.07,3.46c1.46,0.5,3.2,1.07,5.2,1.69V31.93C234.59,32.04,231.04,32.64,228.39,33.74z
		 M216.67,27.79c6-2.52,13.46-3.88,22.36-4.08v-13c-30.74,2.31-59.67,25.91-81.95,67.05c-6.54,12.07-12.28,25.23-17.17,39.27h99.12
		V85.27c-0.81,0.02-1.64,0.03-2.48,0.03c-6.22,0-12.38-0.57-18.49-1.71s-10.5-2.42-13.2-3.83l8.24-7.75
		c2.17,1.03,5.56,2.11,10.17,3.22c4.6,1.12,9.03,1.67,13.28,1.67c0.85,0,1.68-0.02,2.48-0.05V59.09c-1.51-0.42-3.16-0.87-4.97-1.34
		c-5.9-1.52-9.94-2.66-12.11-3.43c-10.05-3.53-15.07-8.42-15.07-14.67C206.88,34.49,210.14,30.54,216.67,27.79z M319.98,194.25
		v12.49c9.1-7.21,14.47-15.73,14.54-24.78v-0.09C330.7,186.32,325.83,190.48,319.98,194.25z M284.63,208.85v14.42
		c9.5-2.54,18.09-5.92,25.35-9.94v-13.47C302.32,203.59,293.78,206.61,284.63,208.85z M249.03,213.51v14.9
		c8.9-0.29,17.5-1.28,25.6-2.84v-14.61C266.42,212.41,257.82,213.27,249.03,213.51z M319.98,244.07v12.49
		c9.1-7.21,14.47-15.73,14.54-24.78v-0.09C330.7,236.14,325.83,240.3,319.98,244.07z M249.03,263.33v14.9
		c8.9-0.29,17.5-1.28,25.6-2.84v-14.61C266.42,262.23,257.82,263.09,249.03,263.33z M284.63,258.67v14.42
		c9.5-2.54,18.09-5.92,25.35-9.94v-13.47C302.32,253.41,293.78,256.43,284.63,258.67z M319.98,293.89v12.49
		c9.1-7.21,14.47-15.73,14.54-24.78v-0.09C330.7,285.96,325.83,290.12,319.98,293.89z M249.03,313.15v14.9
		c8.9-0.29,17.5-1.28,25.6-2.84V310.6C266.42,312.05,257.82,312.91,249.03,313.15z M284.63,308.49v14.42
		c9.5-2.54,18.09-5.92,25.35-9.94V299.5C302.32,303.23,293.78,306.25,284.63,308.49z M319.98,343.71v12.49
		c9.1-7.21,14.47-15.73,14.54-24.78v-0.09C330.7,335.78,325.83,339.94,319.98,343.71z M249.03,362.97v14.9
		c8.9-0.29,17.5-1.28,25.6-2.84v-14.61C266.42,361.87,257.82,362.73,249.03,362.97z M284.63,358.31v14.42
		c9.5-2.54,18.09-5.92,25.35-9.94v-13.47C302.32,353.05,293.78,356.07,284.63,358.31z M319.98,393.52v12.49
		c9.1-7.21,14.47-15.73,14.54-24.78v-0.09C330.7,385.59,325.83,389.75,319.98,393.52z M249.03,412.78v14.9
		c8.9-0.29,17.5-1.28,25.6-2.84v-14.61C266.42,411.68,257.82,412.54,249.03,412.78z M284.63,408.12v14.42
		c9.5-2.54,18.09-5.92,25.35-9.94v-13.48C302.32,402.85,293.78,405.88,284.63,408.12z M319.98,443.34v12.53
		c9.1-7.23,14.47-15.77,14.54-24.82v-0.09C330.7,435.41,325.83,439.57,319.98,443.34z M249.03,462.6v14.9
		c8.9-0.26,17.5-1.23,25.6-2.78v-14.67C266.42,461.5,257.82,462.36,249.03,462.6z M284.63,457.94v14.48
		c9.5-2.53,18.09-5.92,25.35-9.94v-13.54C302.32,452.67,293.78,455.7,284.63,457.94z M319.98,418.43v12.49
		c9.1-7.21,14.47-15.73,14.54-24.78v-0.09C330.7,410.5,325.83,414.66,319.98,418.43z M249.03,437.69v14.9
		c8.9-0.29,17.5-1.28,25.6-2.84v-14.61C266.42,436.59,257.82,437.45,249.03,437.69z M284.63,433.03v14.42
		c9.5-2.54,18.09-5.92,25.35-9.94v-13.47C302.32,427.77,293.78,430.79,284.63,433.03z M319.98,368.62v12.48
		c9.1-7.21,14.47-15.73,14.54-24.78v-0.08C330.7,360.69,325.83,364.85,319.98,368.62z M249.03,387.88v14.89
		c8.9-0.29,17.5-1.28,25.6-2.84v-14.6C266.42,386.78,257.82,387.64,249.03,387.88z M284.63,383.22v14.41
		c9.5-2.54,18.09-5.92,25.35-9.94v-13.47C302.32,377.95,293.78,380.98,284.63,383.22z M319.98,318.8v12.49
		c9.1-7.21,14.47-15.73,14.54-24.78v-0.09C330.7,310.87,325.83,315.03,319.98,318.8z M249.03,338.06v14.9
		c8.9-0.29,17.5-1.28,25.6-2.84v-14.61C266.42,336.96,257.82,337.82,249.03,338.06z M284.63,333.4v14.42
		c9.5-2.54,18.09-5.92,25.35-9.94V324.4C302.32,328.13,293.78,331.16,284.63,333.4z M319.98,268.98v12.49
		c9.1-7.21,14.47-15.73,14.54-24.78v-0.09C330.7,261.05,325.83,265.21,319.98,268.98z M249.03,288.24v14.9
		c8.9-0.29,17.5-1.28,25.6-2.84v-14.61C266.42,287.14,257.82,288,249.03,288.24z M284.63,283.58V298c9.5-2.54,18.09-5.92,25.35-9.94
		v-13.48C302.32,278.31,293.78,281.34,284.63,283.58z M249.03,238.42v14.9c8.9-0.29,17.5-1.28,25.6-2.84v-14.61
		C266.42,237.32,257.82,238.18,249.03,238.42z M284.63,233.76v14.42c9.5-2.54,18.09-5.92,25.35-9.94v-13.48
		C302.32,228.49,293.78,231.52,284.63,233.76z M319.98,219.16v12.49c9.1-7.21,14.47-15.73,14.54-24.78v-0.09
		C330.7,211.23,325.83,215.39,319.98,219.16z M319.98,169.35v12.48c9.1-7.21,14.47-15.73,14.54-24.78v-0.08
		C330.7,161.42,325.83,165.58,319.98,169.35z M284.63,183.95v14.41c9.5-2.54,18.09-5.92,25.35-9.94v-13.46
		C302.32,178.69,293.78,181.71,284.63,183.95z M249.03,188.61v14.89c8.9-0.29,17.5-1.28,25.6-2.84v-14.6
		C266.42,187.51,257.82,188.37,249.03,188.61z M319.98,144.44v12.49c9.1-7.21,14.47-15.73,14.54-24.78v-0.09
		C330.7,136.51,325.83,140.67,319.98,144.44z M284.63,159.04v14.42c9.5-2.54,18.09-5.92,25.35-9.94v-13.48
		C302.32,153.77,293.78,156.8,284.63,159.04z M249.03,163.7v14.9c8.9-0.29,17.5-1.28,25.6-2.84v-14.61
		C266.42,162.6,257.82,163.46,249.03,163.7z M249.03,138.79v14.9c8.9-0.29,17.5-1.28,25.6-2.84v-14.61
		C266.42,137.69,257.82,138.55,249.03,138.79z M319.98,119.53v12.49c9.1-7.21,14.47-15.73,14.54-24.78v-0.09
		C330.7,111.6,325.83,115.76,319.98,119.53z M284.63,134.13v14.42c9.5-2.54,18.09-5.92,25.35-9.94v-13.47
		C302.32,128.87,293.78,131.89,284.63,134.13z M249.03,113.88v14.9c8.9-0.29,17.5-1.28,25.6-2.84v-14.61
		C266.42,112.78,257.82,113.64,249.03,113.88z M284.63,109.22v14.42c9.5-2.54,18.09-5.92,25.35-9.94v-13.48
		C302.32,103.95,293.78,106.98,284.63,109.22z M319.98,94.62v12.49c9.1-7.21,14.47-15.73,14.54-24.78v-0.09
		C330.7,86.69,325.83,90.85,319.98,94.62z M139.91,371.07c4.89,14.03,10.63,27.19,17.17,39.26c22.28,41.15,51.21,64.75,81.95,67.06
		V371.07H139.91z M119.87,249.05c0.44,39.96,6.24,78.24,16.75,112.02h102.41V249.05H119.87z M136.62,127.03
		c-10.51,33.78-16.31,72.06-16.75,112.02h119.16V127.03H136.62z M228.39,33.74c-2.95,1.23-4.42,3.03-4.42,5.42
		c0,1.69,0.93,3.2,2.79,4.53s4.22,2.48,7.07,3.46c1.46,0.5,3.2,1.07,5.2,1.69V31.93C234.59,32.04,231.04,32.64,228.39,33.74z
		 M216.67,27.79c6-2.52,13.46-3.88,22.36-4.08v-13c-30.74,2.31-59.67,25.91-81.95,67.05c-6.54,12.07-12.28,25.23-17.17,39.27h99.12
		V85.27c-0.81,0.02-1.64,0.03-2.48,0.03c-6.22,0-12.38-0.57-18.49-1.71s-10.5-2.42-13.2-3.83l8.24-7.75
		c2.17,1.03,5.56,2.11,10.17,3.22c4.6,1.12,9.03,1.67,13.28,1.67c0.85,0,1.68-0.02,2.48-0.05V59.09c-1.51-0.42-3.16-0.87-4.97-1.34
		c-5.9-1.52-9.94-2.66-12.11-3.43c-10.05-3.53-15.07-8.42-15.07-14.67C206.88,34.49,210.14,30.54,216.67,27.79z M319.98,144.44
		v12.49c9.1-7.21,14.47-15.73,14.54-24.78v-0.09C330.7,136.51,325.83,140.67,319.98,144.44z M284.63,159.04v14.42
		c9.5-2.54,18.09-5.92,25.35-9.94v-13.48C302.32,153.77,293.78,156.8,284.63,159.04z M249.03,163.7v14.9
		c8.9-0.29,17.5-1.28,25.6-2.84v-14.61C266.42,162.6,257.82,163.46,249.03,163.7z M319.98,194.25v12.49
		c9.1-7.21,14.47-15.73,14.54-24.78v-0.09C330.7,186.32,325.83,190.48,319.98,194.25z M284.63,208.85v14.42
		c9.5-2.54,18.09-5.92,25.35-9.94v-13.47C302.32,203.59,293.78,206.61,284.63,208.85z M249.03,213.51v14.9
		c8.9-0.29,17.5-1.28,25.6-2.84v-14.61C266.42,212.41,257.82,213.27,249.03,213.51z M319.98,244.07v12.49
		c9.1-7.21,14.47-15.73,14.54-24.78v-0.09C330.7,236.14,325.83,240.3,319.98,244.07z M249.03,263.33v14.9
		c8.9-0.29,17.5-1.28,25.6-2.84v-14.61C266.42,262.23,257.82,263.09,249.03,263.33z M284.63,258.67v14.42
		c9.5-2.54,18.09-5.92,25.35-9.94v-13.47C302.32,253.41,293.78,256.43,284.63,258.67z M319.98,293.89v12.49
		c9.1-7.21,14.47-15.73,14.54-24.78v-0.09C330.7,285.96,325.83,290.12,319.98,293.89z M249.03,313.15v14.9
		c8.9-0.29,17.5-1.28,25.6-2.84V310.6C266.42,312.05,257.82,312.91,249.03,313.15z M284.63,308.49v14.42
		c9.5-2.54,18.09-5.92,25.35-9.94V299.5C302.32,303.23,293.78,306.25,284.63,308.49z M319.98,343.71v12.49
		c9.1-7.21,14.47-15.73,14.54-24.78v-0.09C330.7,335.78,325.83,339.94,319.98,343.71z M249.03,362.97v14.9
		c8.9-0.29,17.5-1.28,25.6-2.84v-14.61C266.42,361.87,257.82,362.73,249.03,362.97z M284.63,358.31v14.42
		c9.5-2.54,18.09-5.92,25.35-9.94v-13.47C302.32,353.05,293.78,356.07,284.63,358.31z M319.98,393.52v12.49
		c9.1-7.21,14.47-15.73,14.54-24.78v-0.09C330.7,385.59,325.83,389.75,319.98,393.52z M249.03,412.78v14.9
		c8.9-0.29,17.5-1.28,25.6-2.84v-14.61C266.42,411.68,257.82,412.54,249.03,412.78z M284.63,408.12v14.42
		c9.5-2.54,18.09-5.92,25.35-9.94v-13.48C302.32,402.85,293.78,405.88,284.63,408.12z M319.98,443.34v12.53
		c9.1-7.23,14.47-15.77,14.54-24.82v-0.09C330.7,435.41,325.83,439.57,319.98,443.34z M249.03,462.6v14.9
		c8.9-0.26,17.5-1.23,25.6-2.78v-14.67C266.42,461.5,257.82,462.36,249.03,462.6z M284.63,457.94v14.48
		c9.5-2.53,18.09-5.92,25.35-9.94v-13.54C302.32,452.67,293.78,455.7,284.63,457.94z M319.98,418.43v12.49
		c9.1-7.21,14.47-15.73,14.54-24.78v-0.09C330.7,410.5,325.83,414.66,319.98,418.43z M249.03,437.69v14.9
		c8.9-0.29,17.5-1.28,25.6-2.84v-14.61C266.42,436.59,257.82,437.45,249.03,437.69z M284.63,433.03v14.42
		c9.5-2.54,18.09-5.92,25.35-9.94v-13.47C302.32,427.77,293.78,430.79,284.63,433.03z M319.98,368.62v12.48
		c9.1-7.21,14.47-15.73,14.54-24.78v-0.08C330.7,360.69,325.83,364.85,319.98,368.62z M249.03,387.88v14.89
		c8.9-0.29,17.5-1.28,25.6-2.84v-14.6C266.42,386.78,257.82,387.64,249.03,387.88z M284.63,383.22v14.41
		c9.5-2.54,18.09-5.92,25.35-9.94v-13.47C302.32,377.95,293.78,380.98,284.63,383.22z M319.98,318.8v12.49
		c9.1-7.21,14.47-15.73,14.54-24.78v-0.09C330.7,310.87,325.83,315.03,319.98,318.8z M249.03,338.06v14.9
		c8.9-0.29,17.5-1.28,25.6-2.84v-14.61C266.42,336.96,257.82,337.82,249.03,338.06z M284.63,333.4v14.42
		c9.5-2.54,18.09-5.92,25.35-9.94V324.4C302.32,328.13,293.78,331.16,284.63,333.4z M319.98,268.98v12.49
		c9.1-7.21,14.47-15.73,14.54-24.78v-0.09C330.7,261.05,325.83,265.21,319.98,268.98z M249.03,288.24v14.9
		c8.9-0.29,17.5-1.28,25.6-2.84v-14.61C266.42,287.14,257.82,288,249.03,288.24z M284.63,283.58V298c9.5-2.54,18.09-5.92,25.35-9.94
		v-13.48C302.32,278.31,293.78,281.34,284.63,283.58z M249.03,238.42v14.9c8.9-0.29,17.5-1.28,25.6-2.84v-14.61
		C266.42,237.32,257.82,238.18,249.03,238.42z M284.63,233.76v14.42c9.5-2.54,18.09-5.92,25.35-9.94v-13.48
		C302.32,228.49,293.78,231.52,284.63,233.76z M319.98,219.16v12.49c9.1-7.21,14.47-15.73,14.54-24.78v-0.09
		C330.7,211.23,325.83,215.39,319.98,219.16z M319.98,169.35v12.48c9.1-7.21,14.47-15.73,14.54-24.78v-0.08
		C330.7,161.42,325.83,165.58,319.98,169.35z M284.63,183.95v14.41c9.5-2.54,18.09-5.92,25.35-9.94v-13.46
		C302.32,178.69,293.78,181.71,284.63,183.95z M249.03,188.61v14.89c8.9-0.29,17.5-1.28,25.6-2.84v-14.6
		C266.42,187.51,257.82,188.37,249.03,188.61z M249.03,138.79v14.9c8.9-0.29,17.5-1.28,25.6-2.84v-14.61
		C266.42,137.69,257.82,138.55,249.03,138.79z M319.98,119.53v12.49c9.1-7.21,14.47-15.73,14.54-24.78v-0.09
		C330.7,111.6,325.83,115.76,319.98,119.53z M284.63,134.13v14.42c9.5-2.54,18.09-5.92,25.35-9.94v-13.47
		C302.32,128.87,293.78,131.89,284.63,134.13z M249.03,113.88v14.9c8.9-0.29,17.5-1.28,25.6-2.84v-14.61
		C266.42,112.78,257.82,113.64,249.03,113.88z M284.63,109.22v14.42c9.5-2.54,18.09-5.92,25.35-9.94v-13.48
		C302.32,103.95,293.78,106.98,284.63,109.22z M319.98,94.62v12.49c9.1-7.21,14.47-15.73,14.54-24.78v-0.09
		C330.7,86.69,325.83,90.85,319.98,94.62z M139.91,371.07c4.89,14.03,10.63,27.19,17.17,39.26c22.28,41.15,51.21,64.75,81.95,67.06
		V371.07H139.91z M119.87,249.05c0.44,39.96,6.24,78.24,16.75,112.02h102.41V249.05H119.87z M136.62,127.03
		c-10.51,33.78-16.31,72.06-16.75,112.02h119.16V127.03H136.62z M228.39,33.74c-2.95,1.23-4.42,3.03-4.42,5.42
		c0,1.69,0.93,3.2,2.79,4.53s4.22,2.48,7.07,3.46c1.46,0.5,3.2,1.07,5.2,1.69V31.93C234.59,32.04,231.04,32.64,228.39,33.74z
		 M216.67,27.79c6-2.52,13.46-3.88,22.36-4.08v-13c-30.74,2.31-59.67,25.91-81.95,67.05c-6.54,12.07-12.28,25.23-17.17,39.27h99.12
		V85.27c-0.81,0.02-1.64,0.03-2.48,0.03c-6.22,0-12.38-0.57-18.49-1.71s-10.5-2.42-13.2-3.83l8.24-7.75
		c2.17,1.03,5.56,2.11,10.17,3.22c4.6,1.12,9.03,1.67,13.28,1.67c0.85,0,1.68-0.02,2.48-0.05V59.09c-1.51-0.42-3.16-0.87-4.97-1.34
		c-5.9-1.52-9.94-2.66-12.11-3.43c-10.05-3.53-15.07-8.42-15.07-14.67C206.88,34.49,210.14,30.54,216.67,27.79z M249.03,113.88v14.9
		c8.9-0.29,17.5-1.28,25.6-2.84v-14.61C266.42,112.78,257.82,113.64,249.03,113.88z M284.63,109.22v14.42
		c9.5-2.54,18.09-5.92,25.35-9.94v-13.48C302.32,103.95,293.78,106.98,284.63,109.22z M319.98,94.62v12.49
		c9.1-7.21,14.47-15.73,14.54-24.78v-0.09C330.7,86.69,325.83,90.85,319.98,94.62z M319.98,144.44v12.49
		c9.1-7.21,14.47-15.73,14.54-24.78v-0.09C330.7,136.51,325.83,140.67,319.98,144.44z M284.63,159.04v14.42
		c9.5-2.54,18.09-5.92,25.35-9.94v-13.48C302.32,153.77,293.78,156.8,284.63,159.04z M249.03,163.7v14.9
		c8.9-0.29,17.5-1.28,25.6-2.84v-14.61C266.42,162.6,257.82,163.46,249.03,163.7z M319.98,194.25v12.49
		c9.1-7.21,14.47-15.73,14.54-24.78v-0.09C330.7,186.32,325.83,190.48,319.98,194.25z M284.63,208.85v14.42
		c9.5-2.54,18.09-5.92,25.35-9.94v-13.47C302.32,203.59,293.78,206.61,284.63,208.85z M249.03,213.51v14.9
		c8.9-0.29,17.5-1.28,25.6-2.84v-14.61C266.42,212.41,257.82,213.27,249.03,213.51z M319.98,244.07v12.49
		c9.1-7.21,14.47-15.73,14.54-24.78v-0.09C330.7,236.14,325.83,240.3,319.98,244.07z M249.03,263.33v14.9
		c8.9-0.29,17.5-1.28,25.6-2.84v-14.61C266.42,262.23,257.82,263.09,249.03,263.33z M284.63,258.67v14.42
		c9.5-2.54,18.09-5.92,25.35-9.94v-13.47C302.32,253.41,293.78,256.43,284.63,258.67z M319.98,293.89v12.49
		c9.1-7.21,14.47-15.73,14.54-24.78v-0.09C330.7,285.96,325.83,290.12,319.98,293.89z M249.03,313.15v14.9
		c8.9-0.29,17.5-1.28,25.6-2.84V310.6C266.42,312.05,257.82,312.91,249.03,313.15z M284.63,308.49v14.42
		c9.5-2.54,18.09-5.92,25.35-9.94V299.5C302.32,303.23,293.78,306.25,284.63,308.49z M319.98,343.71v12.49
		c9.1-7.21,14.47-15.73,14.54-24.78v-0.09C330.7,335.78,325.83,339.94,319.98,343.71z M249.03,362.97v14.9
		c8.9-0.29,17.5-1.28,25.6-2.84v-14.61C266.42,361.87,257.82,362.73,249.03,362.97z M284.63,358.31v14.42
		c9.5-2.54,18.09-5.92,25.35-9.94v-13.47C302.32,353.05,293.78,356.07,284.63,358.31z M319.98,393.52v12.49
		c9.1-7.21,14.47-15.73,14.54-24.78v-0.09C330.7,385.59,325.83,389.75,319.98,393.52z M249.03,412.78v14.9
		c8.9-0.29,17.5-1.28,25.6-2.84v-14.61C266.42,411.68,257.82,412.54,249.03,412.78z M284.63,408.12v14.42
		c9.5-2.54,18.09-5.92,25.35-9.94v-13.48C302.32,402.85,293.78,405.88,284.63,408.12z M319.98,443.34v12.53
		c9.1-7.23,14.47-15.77,14.54-24.82v-0.09C330.7,435.41,325.83,439.57,319.98,443.34z M249.03,462.6v14.9
		c8.9-0.26,17.5-1.23,25.6-2.78v-14.67C266.42,461.5,257.82,462.36,249.03,462.6z M284.63,457.94v14.48
		c9.5-2.53,18.09-5.92,25.35-9.94v-13.54C302.32,452.67,293.78,455.7,284.63,457.94z M319.98,418.43v12.49
		c9.1-7.21,14.47-15.73,14.54-24.78v-0.09C330.7,410.5,325.83,414.66,319.98,418.43z M249.03,437.69v14.9
		c8.9-0.29,17.5-1.28,25.6-2.84v-14.61C266.42,436.59,257.82,437.45,249.03,437.69z M284.63,433.03v14.42
		c9.5-2.54,18.09-5.92,25.35-9.94v-13.47C302.32,427.77,293.78,430.79,284.63,433.03z M319.98,368.62v12.48
		c9.1-7.21,14.47-15.73,14.54-24.78v-0.08C330.7,360.69,325.83,364.85,319.98,368.62z M249.03,387.88v14.89
		c8.9-0.29,17.5-1.28,25.6-2.84v-14.6C266.42,386.78,257.82,387.64,249.03,387.88z M284.63,383.22v14.41
		c9.5-2.54,18.09-5.92,25.35-9.94v-13.47C302.32,377.95,293.78,380.98,284.63,383.22z M319.98,318.8v12.49
		c9.1-7.21,14.47-15.73,14.54-24.78v-0.09C330.7,310.87,325.83,315.03,319.98,318.8z M249.03,338.06v14.9
		c8.9-0.29,17.5-1.28,25.6-2.84v-14.61C266.42,336.96,257.82,337.82,249.03,338.06z M284.63,333.4v14.42
		c9.5-2.54,18.09-5.92,25.35-9.94V324.4C302.32,328.13,293.78,331.16,284.63,333.4z M319.98,268.98v12.49
		c9.1-7.21,14.47-15.73,14.54-24.78v-0.09C330.7,261.05,325.83,265.21,319.98,268.98z M249.03,288.24v14.9
		c8.9-0.29,17.5-1.28,25.6-2.84v-14.61C266.42,287.14,257.82,288,249.03,288.24z M284.63,283.58V298c9.5-2.54,18.09-5.92,25.35-9.94
		v-13.48C302.32,278.31,293.78,281.34,284.63,283.58z M249.03,238.42v14.9c8.9-0.29,17.5-1.28,25.6-2.84v-14.61
		C266.42,237.32,257.82,238.18,249.03,238.42z M284.63,233.76v14.42c9.5-2.54,18.09-5.92,25.35-9.94v-13.48
		C302.32,228.49,293.78,231.52,284.63,233.76z M319.98,219.16v12.49c9.1-7.21,14.47-15.73,14.54-24.78v-0.09
		C330.7,211.23,325.83,215.39,319.98,219.16z M319.98,169.35v12.48c9.1-7.21,14.47-15.73,14.54-24.78v-0.08
		C330.7,161.42,325.83,165.58,319.98,169.35z M284.63,183.95v14.41c9.5-2.54,18.09-5.92,25.35-9.94v-13.46
		C302.32,178.69,293.78,181.71,284.63,183.95z M249.03,188.61v14.89c8.9-0.29,17.5-1.28,25.6-2.84v-14.6
		C266.42,187.51,257.82,188.37,249.03,188.61z M249.03,138.79v14.9c8.9-0.29,17.5-1.28,25.6-2.84v-14.61
		C266.42,137.69,257.82,138.55,249.03,138.79z M319.98,119.53v12.49c9.1-7.21,14.47-15.73,14.54-24.78v-0.09
		C330.7,111.6,325.83,115.76,319.98,119.53z M284.63,134.13v14.42c9.5-2.54,18.09-5.92,25.35-9.94v-13.47
		C302.32,128.87,293.78,131.89,284.63,134.13z M139.91,371.07c4.89,14.03,10.63,27.19,17.17,39.26
		c22.28,41.15,51.21,64.75,81.95,67.06V371.07H139.91z M119.87,249.05c0.44,39.96,6.24,78.24,16.75,112.02h102.41V249.05H119.87z
		 M136.62,127.03c-10.51,33.78-16.31,72.06-16.75,112.02h119.16V127.03H136.62z M228.39,33.74c-2.95,1.23-4.42,3.03-4.42,5.42
		c0,1.69,0.93,3.2,2.79,4.53s4.22,2.48,7.07,3.46c1.46,0.5,3.2,1.07,5.2,1.69V31.93C234.59,32.04,231.04,32.64,228.39,33.74z
		 M216.67,27.79c6-2.52,13.46-3.88,22.36-4.08v-13c-30.74,2.31-59.67,25.91-81.95,67.05c-6.54,12.07-12.28,25.23-17.17,39.27h99.12
		V85.27c-0.81,0.02-1.64,0.03-2.48,0.03c-6.22,0-12.38-0.57-18.49-1.71s-10.5-2.42-13.2-3.83l8.24-7.75
		c2.17,1.03,5.56,2.11,10.17,3.22c4.6,1.12,9.03,1.67,13.28,1.67c0.85,0,1.68-0.02,2.48-0.05V59.09c-1.51-0.42-3.16-0.87-4.97-1.34
		c-5.9-1.52-9.94-2.66-12.11-3.43c-10.05-3.53-15.07-8.42-15.07-14.67C206.88,34.49,210.14,30.54,216.67,27.79z M139.91,371.07
		c4.89,14.03,10.63,27.19,17.17,39.26c22.28,41.15,51.21,64.75,81.95,67.06V371.07H139.91z M119.87,249.05
		c0.44,39.96,6.24,78.24,16.75,112.02h102.41V249.05H119.87z M136.62,127.03c-10.51,33.78-16.31,72.06-16.75,112.02h119.16V127.03
		H136.62z M228.39,33.74c-2.95,1.23-4.42,3.03-4.42,5.42c0,1.69,0.93,3.2,2.79,4.53s4.22,2.48,7.07,3.46c1.46,0.5,3.2,1.07,5.2,1.69
		V31.93C234.59,32.04,231.04,32.64,228.39,33.74z M216.67,27.79c6-2.52,13.46-3.88,22.36-4.08v-13
		c-30.74,2.31-59.67,25.91-81.95,67.05c-6.54,12.07-12.28,25.23-17.17,39.27h99.12V85.27c-0.81,0.02-1.64,0.03-2.48,0.03
		c-6.22,0-12.38-0.57-18.49-1.71s-10.5-2.42-13.2-3.83l8.24-7.75c2.17,1.03,5.56,2.11,10.17,3.22c4.6,1.12,9.03,1.67,13.28,1.67
		c0.85,0,1.68-0.02,2.48-0.05V59.09c-1.51-0.42-3.16-0.87-4.97-1.34c-5.9-1.52-9.94-2.66-12.11-3.43
		c-10.05-3.53-15.07-8.42-15.07-14.67C206.88,34.49,210.14,30.54,216.67,27.79z M139.91,371.07c4.89,14.03,10.63,27.19,17.17,39.26
		c22.28,41.15,51.21,64.75,81.95,67.06V371.07H139.91z M119.87,249.05c0.44,39.96,6.24,78.24,16.75,112.02h102.41V249.05H119.87z
		 M109.87,249.05H0c0.81,40.53,11.5,78.64,29.76,112.02h96.4C115.93,327.05,110.3,288.83,109.87,249.05z M29.8,127.03
		C11.53,160.4,0.82,198.51,0.01,239.05h109.86c0.43-39.78,6.06-78,16.29-112.02H29.8z"/>
	<g>
		<path class="st1" d="M241.36,23.68c-0.79,0-1.56,0.01-2.33,0.03v8.22c0.51-0.01,1.02-0.02,1.55-0.02c4.04,0,7.85,0.39,11.42,1.18
			c3.57,0.79,6.34,1.73,8.31,2.81l8.23-7.41C261.08,25.28,252.02,23.68,241.36,23.68z M270.4,61.82c-1.86-1.95-4.3-3.64-7.3-5.05
			c-2.17-1.09-4.5-2.02-6.99-2.81c-2.48-0.79-6.05-1.86-10.71-3.22c-2.37-0.69-4.49-1.32-6.37-1.9v10.25
			c2.64,0.73,4.81,1.39,6.52,1.96c2.69,0.9,4.97,2.02,6.84,3.38c1.86,1.36,2.79,2.96,2.79,4.81c0,2.39-1.73,4.27-5.2,5.62
			c-2.93,1.15-6.58,1.81-10.95,1.99v8.42c6.04-0.13,11.5-0.78,16.38-1.93c5.54-1.3,9.89-3.23,13.05-5.79
			c3.16-2.55,4.74-5.65,4.74-9.29C273.2,65.93,272.26,63.78,270.4,61.82z"/>
		<path class="st2" d="M239.03,76.85v8.42c-0.81,0.02-1.64,0.03-2.48,0.03c-6.22,0-12.38-0.57-18.49-1.71s-10.5-2.42-13.2-3.83
			l8.24-7.75c2.17,1.03,5.56,2.11,10.17,3.22c4.6,1.12,9.03,1.67,13.28,1.67C237.4,76.9,238.23,76.88,239.03,76.85z"/>
		<path class="st2" d="M223.97,39.16c0,1.69,0.93,3.2,2.79,4.53s4.22,2.48,7.07,3.46c1.46,0.5,3.2,1.07,5.2,1.69v10.25
			c-1.51-0.42-3.16-0.87-4.97-1.34c-5.9-1.52-9.94-2.66-12.11-3.43c-10.05-3.53-15.07-8.42-15.07-14.67c0-5.16,3.26-9.11,9.79-11.86
			c6-2.52,13.46-3.88,22.36-4.08v8.22c-4.44,0.11-7.99,0.71-10.64,1.81C225.44,34.97,223.97,36.77,223.97,39.16z"/>
	</g>
</g>
</svg>
