<?xml version="1.0" encoding="utf-8"?>
<!-- Generator: Adobe Illustrator 23.0.1, SVG Export Plug-In . SVG Version: 6.00 Build 0)  -->
<svg version="1.1" id="Layer_1" xmlns="http://www.w3.org/2000/svg" xmlns:xlink="http://www.w3.org/1999/xlink" x="0px" y="0px"
	 width="298.8px" height="41.6px" viewBox="0 0 298.8 41.6" style="enable-background:new 0 0 298.8 41.6;" xml:space="preserve">
<g>
	<path d="M34.2,29V0.6h5.9v28.5c0,4.5,4.8,6.7,9.1,6.7c4.2,0,9.1-2.3,9.1-6.7V0.6h5.9v28.5c0,8.3-8,12.6-15,12.6
		C42.1,41.6,34.2,37.3,34.2,29z"/>
	<path d="M73.3,6.4c3.5-3.7,8.5-6,14.1-6c9.3,0,16.6,5.8,18.9,15h-5.8c-2.2-6.1-7.1-9.2-13.1-9.2c-3.9,0-7.4,1.7-10,4.4
		s-4.2,6.3-4.2,10.5c0,4.1,1.6,7.7,4.2,10.3s6.1,4.4,10,4.4c6.2,0,11.4-3.5,13.5-9.7h5.8c-2.3,9.2-9.8,15.5-19.2,15.5
		c-5.5,0-10.5-2.3-14.1-6c-3.5-3.7-5.8-8.8-5.8-14.5C67.5,15.2,69.9,10.1,73.3,6.4z"/>
	<path d="M115.2,35.3h19.1v5.9h-25V0.6h5.9V35.3z"/>
	<path d="M142.6,35.3h18.9v5.9h-24.8V0.6h24.8v5.9h-18.8v11.4H161v5.9h-18.4V35.3z"/>
	<path d="M187,29.2h-14.6c-1.6,3.7-3.6,8.6-4.9,12h-6.3L177.5,0h4.3l16.3,41.2h-6.3L187,29.2z M174.6,23.7h10.1l-5-14.4L174.6,23.7z
		"/>
	<path d="M198.8,41.2V0.5l4.5,0.1l19.8,28.7V0.5h5.8v40.7h-4.6l-19.6-28.4v28.4H198.8z"/>
	<g>
		<path d="M298.8,1.1L293.8,22c-1.7,7.1-5.1,13.7-9.8,19.2v0l-17-14.6c-4.5-3.9-11.5-2.6-14.3,2.6l-3.1,5.7c-2.2,4-6.5,6.2-11,5.6
			l0,0l5.1-20.9c1.7-7.1,5.1-13.7,9.8-19.2v0l17,14.6c4.5,3.9,11.5,2.6,14.3-2.6l3.1-5.7C290,2.7,294.4,0.5,298.8,1.1L298.8,1.1z"/>
		<circle cx="238.5" cy="6.4" r="6"/>
	</g>
	<path d="M30,12.8v28.4h-5.9V12.7C24.1,8.3,19.3,6,15,6c-4.2,0-9.1,2.3-9.1,6.7v28.4H0V12.7C0,4.5,8,0.2,15,0.2
		C22.1,0.2,30,4.5,30,12.8z"/>
</g>
</svg>
