<?xml version="1.0" encoding="utf-8"?>
<!-- Generator: Adobe Illustrator 23.0.1, SVG Export Plug-In . SVG Version: 6.00 Build 0)  -->
<svg version="1.1" id="Layer_1" xmlns="http://www.w3.org/2000/svg" xmlns:xlink="http://www.w3.org/1999/xlink" x="0px" y="0px"
	 width="297.6px" height="120.4px" viewBox="0 0 297.6 120.4" style="enable-background:new 0 0 297.6 120.4;" xml:space="preserve"
	>
<style type="text/css">
	.st0{fill:#010101;}
</style>
<g>
	<path class="st0" d="M179,74.1c0-2.9-0.2-5.8-0.4-8.7c-0.5-5.8-1.4-11.5-2.6-17.1c-1.2-5.7-2.7-11.2-4.6-16.7
		c-1.9-5.5-4.1-10.9-6.8-16c-1.4-2.6-2.9-5.1-4.7-7.5c-1.8-2.4-3.8-4.8-6.6-6.5c-0.4-0.2-0.7-0.4-1.1-0.6c-0.4-0.2-0.8-0.4-1.3-0.5
		c-0.5-0.1-0.9-0.3-1.4-0.3c-0.5,0-1-0.1-1.4,0c-1.9,0.1-3.6,0.8-4.9,1.7c-1.4,0.9-2.6,1.9-3.7,3c-1.1,1.1-2,2.3-2.9,3.5
		c-1.8,2.4-3.3,4.9-4.6,7.5c-1.4,2.6-2.6,5.2-3.7,7.9c-3.8,9.2-6.4,18.8-8,28.5c-0.4-0.6-0.8-1.2-1.2-1.8c-2.4-3.4-4.9-6.6-7.6-9.7
		c-1.4-1.5-2.8-3-4.4-4.5c-1.5-1.4-3.1-2.8-5.1-4c-0.5-0.3-1-0.6-1.6-0.8c-0.6-0.2-1.2-0.5-2.1-0.5c-0.4,0-1,0.1-1.5,0.3
		c-0.3,0.1-0.6,0.4-0.8,0.5c-0.2,0.2-0.4,0.4-0.5,0.5c-0.5,0.7-0.7,1.2-0.9,1.8c-0.8,2.2-1,4.3-1.2,6.4c-0.3,4.2-0.3,8.3,0.1,12.4
		c0.3,4.1,0.9,8.2,1.7,12.2c1.7,8.1,4.2,16,8,23.3c3.7,7.3,8.7,14.1,15,19.4c1.6,1.3,3.3,2.5,5,3.6c1.7,1.1,3.5,2.1,5.4,3
		c3.7,1.7,7.7,2.9,11.7,3.7l0.3-1.2c0,0-0.1,0-0.1,0c-2.6-0.9-5-2.3-7.2-4c-2.2-1.7-4-3.8-5.6-6.2c-3.1-4.7-4.8-10.1-5.9-15.6
		c-1.8-10.2-1.4-20.7,0-30.9c0.4,0.6,0.8,1.3,1.2,1.9c2.1,3.5,4,7,5.7,10.6c1.7,3.6,3.3,7.4,4.6,11.2c1.3,3.8,2.4,7.7,3.3,11.6
		c0.4,2,0.7,4,1,6c0.3,2,0.4,4,0.5,6h0.4c0.1-4.1-0.1-8.2-0.7-12.2c-0.6-4-1.5-8.1-2.6-12c-2.3-7.9-5.7-15.4-9.7-22.6
		c-0.9-1.6-1.9-3.3-2.9-4.8c0.9-5.1,2-10.1,3.4-15c1.5-5.4,3.3-10.8,5.5-16c1.1-2.6,2.3-5.1,3.6-7.6c1.3-2.5,2.8-4.8,4.4-7
		c1.6-2.1,3.5-4.2,5.5-5.4c1-0.6,2.1-1,3.1-1.1c0.5,0,0.9,0,1.4,0.2c0.3,0.1,0.5,0.2,0.7,0.3c0.3,0.1,0.5,0.3,0.8,0.4
		c2,1.3,3.8,3.3,5.4,5.5c1.6,2.2,3,4.6,4.3,7c2.6,4.9,4.8,10.1,6.7,15.4c3.7,10.6,6.4,21.7,7.7,32.9c0.6,5.6,0.9,11.2,0.6,16.8
		c-0.3,5.6-1.1,11.2-2.9,16.5c-1.8,5.3-4.7,10.2-9,13.7c-2.1,1.8-4.6,3.1-7.3,4.1c-2.6,1-5.4,1.5-8.3,1.8l0,0.4
		c2.9-0.1,5.8-0.4,8.5-1.3c2.8-0.8,5.4-2.1,7.8-3.9c2.4-1.7,4.4-3.9,6.1-6.3c1.7-2.4,3-5,4.1-7.8c2.1-5.5,3.2-11.3,3.7-17
		C179,79.9,179,77,179,74.1z M120.1,91.7c1.3,5.6,3.3,11.2,6.6,16c1.7,2.4,3.7,4.6,6,6.4c0.8,0.6,1.6,1.2,2.5,1.7
		c-5.9-1.8-11.4-4.8-16-8.8c-6.1-5.3-10.6-12.1-14-19.3c-3.3-7.3-5.5-15.1-6.9-23c-0.7-4-1.2-7.9-1.4-11.9c-0.2-4-0.3-8,0-11.9
		c0.2-1.9,0.5-3.9,1-5.6c0.1-0.3,0.3-0.7,0.4-0.9h-0.1c-0.1,0-0.1,0,0,0c0,0,0.1,0,0.1-0.1c0,0,0,0,0,0c0,0,0,0,0,0
		c0.2,0,0.5,0.1,0.8,0.2c0.4,0.1,0.8,0.3,1.1,0.6c1.6,0.9,3.1,2.2,4.5,3.5c1.5,1.3,2.8,2.7,4.2,4.2c3.9,4.2,7.4,8.8,10.6,13.6
		c0,0.2-0.1,0.4-0.1,0.7c-0.8,5.7-1.2,11.5-1.1,17.3C118.4,80.2,118.9,86,120.1,91.7z"/>
	<path class="st0" d="M98.4,34.3C98.4,34.4,98.4,34.4,98.4,34.3C98.3,34.4,98.3,34.4,98.4,34.3l-0.1,0.1c-0.1,0-0.1,0,0,0
		C98.3,34.4,98.3,34.4,98.4,34.3z"/>
	<path class="st0" d="M119.7,118.2l-0.2,0.3c-2.3-1.1-4.6-2.4-6.9-3.4c-2.3-1.1-4.7-2.1-7.1-3.1c-4.8-1.9-9.6-3.7-14.5-5.3
		c-9.8-3.2-19.7-5.7-29.8-7.9c-2.5-0.5-5-1.1-7.5-1.5c-2.5-0.5-5-1-7.6-1.4c-5.1-0.9-10.2-1.7-15.3-2.3c-5.1-0.7-10.2-1.3-15.3-1.8
		c-0.9-0.1-1.8-0.2-2.6-0.3c4.6,0.9,9.3,1.9,13.9,2.9c8.8,1.9,17.7,3.9,26.3,6.8c8.6,2.8,17,6.1,25.5,8.8c4.3,1.4,8.5,2.6,12.9,3.5
		c4.4,0.9,8.8,1.4,13.3,1.8v0.4c-4.5,0.3-9.1,0.2-13.6-0.3c-4.5-0.5-9-1.5-13.4-2.6c-4.4-1.2-8.7-2.5-13-3.9
		c-4.3-1.4-8.6-2.9-12.8-4.4l-6.3-2.3c-2.1-0.7-4.2-1.5-6.3-2.2c-4.3-1.5-8.5-2.8-12.9-4c-4.3-1.2-8.7-2.2-13.1-3.1S4.5,90.9,0,90.4
		l0.1-1.6c10.4-0.1,20.8,0.2,31.1,1.2c10.3,1,20.7,2.5,30.9,4.7l3.8,0.9c1.3,0.3,2.5,0.6,3.8,0.9c1.3,0.3,2.5,0.7,3.8,1
		c1.3,0.4,2.5,0.7,3.8,1.1c5,1.5,9.9,3.2,14.8,5.1c4.9,1.9,9.6,4.1,14.3,6.4c2.3,1.3,4.6,2.5,6.8,3.9
		C115.4,115.2,117.5,116.7,119.7,118.2z"/>
	<path class="st0" d="M297.5,89.4c-8.1,1.6-16.1,3.9-23.9,6.5c-7.9,2.5-15.6,5.4-23.2,8.6l-11.4,4.7c-3.8,1.5-7.6,3.1-11.4,4.5
		c-1.9,0.6-3.9,1.3-5.7,1.4c-0.9,0.1-1.9,0-2.3-0.5c-0.5-0.4-0.5-1.4-0.3-2.3c0.2-0.9,0.5-1.9,0.9-2.8c0.4-0.9,0.9-1.8,1.4-2.7
		c0.1-0.2,0.3-0.5,0.4-0.7c0.9-1.5,1.9-3,2.9-4.4l-1.2-0.8c-1.2,1.6-2.6,3.2-4,4.5c-0.7,0.7-1.5,1.3-2.3,1.7
		c-0.8,0.5-1.6,0.9-2.2,0.9c-0.3,0-0.5,0-0.6-0.1c-0.1-0.1-0.1-0.1-0.2-0.3c-0.2-0.3-0.3-1.1-0.2-1.9c0.1-0.8,0.3-1.7,0.7-2.5
		c0.3-0.9,0.8-1.7,1.2-2.6c0.9-1.7,2.1-3.3,3.3-4.8c1.3-1.5,2.7-2.8,4.3-3.8c0.8-0.5,1.7-0.9,2.5-1.1c0.4-0.1,0.8-0.1,1.1-0.1
		c0.3,0.1,0.5,0.2,0.7,0.5c0.3,0.6,0.2,1.6-0.1,2.6c-0.3,0.9-0.7,1.9-1.1,2.8L227,97c0.6-0.8,1.3-1.7,1.7-2.7c0.2-0.5,0.4-1,0.6-1.6
		c0.1-0.6,0.2-1.2,0-1.9c-0.2-0.7-0.8-1.3-1.5-1.6c-0.7-0.3-1.3-0.3-1.9-0.2c-1.2,0.1-2.3,0.5-3.3,1c-4,2-7,5.3-9.4,8.9
		c-0.7,1.2-1.4,2.4-1.9,3.9c-2.8,2.2-5.8,4.4-8.8,6.3c-3.9,2.6-7.9,4.8-12.1,6.6c-0.5,0.2-1.1,0.4-1.6,0.6c-0.5,0.2-1.1,0.4-1.5,0.5
		c-1,0.3-1.9,0.3-2.7,0.2c-0.8-0.2-1.5-0.6-2-1.3c-0.6-0.7-1-1.6-1.4-2.5c-0.5-1.4-0.8-3-1-4.6c0.1-0.1,0.3-0.2,0.4-0.3
		c0.5-0.4,1-0.7,1.4-1.1c0.9-0.8,1.8-1.6,2.6-2.5c1.7-1.7,3.2-3.6,4.7-5.5c2.8-3.9,5.1-8.2,7-12.6s3.3-9,4.4-13.7
		c2.1-9.3,2.8-18.9,2.5-28.4c0-1.2-0.1-2.4-0.2-3.6c-0.1-1.2-0.1-2.4-0.3-3.6c-0.2-1.2-0.3-2.5-0.9-3.8c-0.2-0.4-0.3-0.7-0.6-1.1
		c-0.3-0.4-0.6-0.8-1.3-1.1c-0.6-0.3-1.5-0.3-2-0.1c-0.5,0.2-0.9,0.4-1.3,0.7c-0.6,0.5-1.1,1-1.5,1.6c-0.4,0.5-0.7,1.1-1,1.6
		c-0.6,1.1-1.2,2.2-1.7,3.3c-1,2.2-1.9,4.4-2.7,6.6c-1.6,4.5-2.9,9-4.2,13.5c-1.3,4.5-2.5,9.1-3.6,13.7c-1.2,4.6-2.3,9.1-3.2,13.8
		c-1,4.6-1.8,9.3-2.1,14.1c-0.1,2.4-0.3,4.8-0.1,7.2c0,0.6,0.1,1.2,0.2,1.8c-0.5,0.4-1,0.8-1.5,1.2l-1.4,1l-1.5,0.9
		c-2,1.3-4,2.3-6.2,3.3l0.1,0.4l1.7-0.5c0.6-0.2,1.1-0.3,1.7-0.6c1.1-0.5,2.2-0.9,3.3-1.4l1.6-0.8l1.5-0.9l0.8-0.5
		c0.1,0,0.1-0.1,0.1-0.1c0.2,1.2,0.5,2.4,1,3.5c0.5,1.2,1.1,2.5,2.1,3.6c1,1.1,2.4,2,3.9,2.3c1.5,0.3,3,0,4.2-0.4
		c0.6-0.2,1.2-0.5,1.8-0.7c0.6-0.2,1.1-0.5,1.7-0.7c2.2-1,4.3-2.2,6.3-3.5c1-0.6,2-1.3,3-2c0.9-0.7,1.9-1.4,2.8-2.2
		c2.5-2,4.9-4,7.1-6.3c0,0.3-0.1,0.5-0.1,0.8c-0.1,0.6-0.1,1.3,0,1.9c0.1,0.7,0.3,1.4,0.7,2.1c0.4,0.7,1.2,1.4,2.1,1.7
		c0.9,0.3,1.7,0.2,2.4,0.1c1.3-0.3,2.3-1,3.1-1.7c-0.4,0.8-0.7,1.7-0.9,2.6c-0.1,0.5-0.2,1.1-0.2,1.7c0,0.6,0.2,1.3,0.7,1.9
		c0.5,0.5,1.1,0.8,1.7,1c0.6,0.2,1.2,0.2,1.7,0.2c2.2,0,4.3-0.4,6.4-0.8c4.1-0.9,8-2.2,12-3.6c3.9-1.4,7.8-2.8,11.6-4.3
		c7.7-2.9,15.3-6,22.9-9.1c7.6-3.1,15.2-6.2,22.8-9.4L297.5,89.4z M179.9,106.1c-0.1-2-0.2-4-0.1-6c0.2-9.2,1.3-18.6,3.4-27.7
		c2-9.1,4.9-18.1,8.6-26.7c0.9-2.1,1.9-4.2,3-6.2c0.5-1,1.1-2,1.8-2.9c0.3-0.5,0.6-0.9,1-1.3c0.3-0.4,0.7-0.8,1-0.9c0,0,0,0,0,0
		c0,0,0,0,0-0.1c-0.1-0.1-0.1-0.1,0-0.1c0.1,0,0.2,0,0.2,0c0,0-0.1,0-0.2,0.1c0.1,0.1,0.1,0.3,0.2,0.4c0.3,0.8,0.4,1.9,0.5,3
		c0.1,1.1,0.1,2.3,0.2,3.4c0,1.2,0.1,2.3,0.1,3.5c0,4.6-0.2,9.3-0.7,13.8c-0.5,4.6-1.2,9.2-2.2,13.6c-0.9,4.5-2.2,8.9-3.8,13.2
		c-0.8,2.1-1.7,4.3-2.7,6.3c-1,2.1-2.1,4-3.3,6C184.7,100.6,182.5,103.5,179.9,106.1z"/>
	<path class="st0" d="M198.7,34.2c0,0-0.1,0-0.2,0.1c0,0,0,0,0-0.1c-0.1-0.1-0.1-0.1,0-0.1C198.5,34.2,198.7,34.2,198.7,34.2z"/>
	<path class="st0" d="M224.8,101.6c-0.9,1.5-1.8,3-2.9,4.4C222.8,104.5,223.8,103.1,224.8,101.6z"/>
	<path class="st0" d="M186.8,13.2c-0.1-0.3-0.2-0.6-0.4-0.8c-0.2-0.2-0.5-0.4-0.8-0.5c-0.6-0.1-1.1,0.2-1.5,0.5
		c-0.4,0.3-0.7,0.6-1,0.9l0,0c0.1-0.8,0-1.6-0.1-2.4c-0.1-0.4-0.2-0.9-0.5-1.3c-0.2-0.4-0.5-0.9-1.1-1.3C181,8.1,180.5,8,180,8
		c-0.5,0.1-0.9,0.3-1.2,0.5c-0.5,0.5-0.7,1-0.9,1.4c-0.2,0.5-0.3,0.9-0.3,1.3c0,0.2,0,0.4-0.1,0.6s0,0.5,0,0.7
		c0.1,0.9,0.3,1.7,0.5,2.4c0.5,1.4,1.2,2.7,2,4c0.1-0.1,0.2-0.2,0.3-0.3c0-1.4-0.3-2.8-0.4-4.2c-0.1-0.7-0.1-1.4-0.1-2
		c0-0.1,0-0.2,0.1-0.4c0-0.2,0.1-0.3,0.1-0.5c0.1-0.3,0.2-0.6,0.3-0.9c0-0.1,0.1-0.2,0.1-0.2c-0.1-0.1-0.1-0.2-0.2-0.2
		c0,0,0.1,0,0.2,0c0.1,0,0.1,0,0.2,0c0,0-0.1,0.1-0.2,0.3c0,0,0.1,0.1,0.1,0.1c0.1,0.2,0.3,0.5,0.4,0.8c0.2,0.6,0.3,1.2,0.4,1.9
		c0.1,0.7,0.1,1.4,0.1,2.1l-0.2,2.4c-0.3,0.3-0.5,0.6-0.8,0.9c0,0.1,0,0.2,0,0.3l-0.2,0.1c0,0,0,0,0-0.1c0,0-0.1,0.1-0.1,0.1
		c-1.1,1.4-2,3-2.5,4.6l0.2,0.1c1.2-1.3,2.3-2.5,3.5-3.6c1.2-1.1,2.5-2.1,3.8-3.2c0.3-0.3,0.7-0.6,1-1c0.1-0.2,0.3-0.4,0.5-0.6
		c0.2-0.2,0.3-0.5,0.3-0.8C186.9,14.3,186.9,13.7,186.8,13.2z M185.3,14.2c-0.1,0.1-0.2,0.3-0.3,0.3c-0.1,0.1-0.2,0.2-0.4,0.3
		l-1,0.7c-0.6,0.4-1.2,0.9-1.7,1.4l0.4-1.1c0.3-0.8,0.7-1.5,1.2-2.2c0.3-0.3,0.5-0.6,0.9-0.8c0.3-0.2,0.7-0.3,0.9-0.3
		C185.8,12.9,185.7,13.8,185.3,14.2z"/>
	<path class="st0" d="M180.3,18.8c0,0.1,0,0.2,0,0.3l-0.2,0.1c0,0,0,0,0-0.1C180.1,19,180.2,18.9,180.3,18.8z"/>
	<path class="st0" d="M180.5,10.4c0,0-0.1,0.1-0.2,0.3c-0.1-0.1-0.1-0.2-0.2-0.2c0,0,0.1,0,0.2,0C180.4,10.5,180.5,10.4,180.5,10.4z
		"/>
</g>
</svg>
