<?xml version="1.0" encoding="utf-8"?>
<!-- Generator: Adobe Illustrator 23.0.1, SVG Export Plug-In . SVG Version: 6.00 Build 0)  -->
<svg version="1.1" id="Layer_2" xmlns="http://www.w3.org/2000/svg" xmlns:xlink="http://www.w3.org/1999/xlink" x="0px" y="0px"
	 width="297.83px" height="121.61px" viewBox="0 0 297.83 121.61" style="enable-background:new 0 0 297.83 121.61;"
	 xml:space="preserve">
<path d="M148.64,119.31c5.64-0.55,11.17-2.4,15.4-5.98c4.25-3.54,7.12-8.45,8.88-13.67c1.76-5.25,2.52-10.83,2.75-16.4
	c0.23-5.58-0.05-11.2-0.72-16.78c-1.31-11.16-4.03-22.17-7.75-32.75c-1.88-5.28-4.07-10.45-6.69-15.32c-1.3-2.43-2.7-4.81-4.29-6.96
	c-1.57-2.14-3.37-4.16-5.25-5.34c-0.23-0.12-0.46-0.27-0.69-0.38c-0.22-0.08-0.45-0.2-0.66-0.26c-0.44-0.12-0.76-0.19-1.17-0.16
	c-0.83,0.03-1.8,0.38-2.77,0.97c-1.96,1.19-3.79,3.16-5.4,5.28c-3.25,4.29-5.79,9.31-8,14.42c-2.2,5.14-4.02,10.47-5.54,15.88
	c-1.55,5.41-2.74,10.92-3.69,16.47c-1.79,11.09-2.59,22.5-0.63,33.56c1.01,5.49,2.74,10.91,5.77,15.58
	c1.53,2.31,3.37,4.41,5.52,6.15c2.14,1.75,4.6,3.1,7.21,4.03l-0.39,1.5c-4.05-0.77-8.04-1.97-11.79-3.71
	c-1.88-0.86-3.71-1.85-5.44-2.97c-1.75-1.11-3.43-2.32-5.02-3.64c-6.38-5.29-11.44-12.08-15.21-19.44
	c-3.79-7.38-6.39-15.31-8.12-23.4c-1.66-8.12-2.5-16.4-1.85-24.84c0.2-2.13,0.42-4.22,1.2-6.53c0.24-0.61,0.43-1.18,0.98-1.94
	c0.11-0.17,0.34-0.41,0.53-0.6c0.18-0.19,0.59-0.45,0.9-0.62c0.62-0.26,1.23-0.34,1.71-0.33c0.97,0.04,1.66,0.28,2.26,0.53
	c0.62,0.25,1.14,0.54,1.65,0.84c1.98,1.21,3.6,2.59,5.16,4.03c1.55,1.44,3,2.95,4.39,4.51c2.77,3.11,5.28,6.41,7.65,9.8
	c2.36,3.39,4.56,6.89,6.54,10.51c1.99,3.61,3.82,7.31,5.43,11.1c1.59,3.8,3,7.68,4.16,11.63c1.13,3.96,2,7.99,2.56,12.06
	c0.59,4.06,0.79,8.18,0.61,12.26l-0.5,0c-0.1-2.02-0.3-4.04-0.58-6.04c-0.26-2-0.6-3.99-1.02-5.96c-0.84-3.94-1.98-7.81-3.34-11.59
	c-1.33-3.79-2.9-7.49-4.65-11.1c-1.74-3.62-3.65-7.15-5.73-10.58c-4.17-6.84-8.86-13.4-14.26-19.23c-1.34-1.46-2.73-2.87-4.17-4.18
	c-1.44-1.3-2.95-2.54-4.46-3.43c-0.37-0.21-0.75-0.41-1.07-0.53c-0.33-0.14-0.64-0.2-0.68-0.19c-0.03,0,0.07,0.02,0.22-0.07
	c0.11-0.01,0.27-0.17,0.29-0.17c0.02,0.01,0.05-0.07,0.03-0.02c-0.06,0.06-0.23,0.46-0.35,0.79c-0.5,1.56-0.78,3.54-0.96,5.44
	c-0.35,3.88-0.26,7.87-0.05,11.83c0.22,3.97,0.72,7.94,1.35,11.88c1.28,7.88,3.44,15.64,6.73,22.92
	c3.29,7.25,7.77,14.08,13.82,19.32c6,5.28,13.51,8.78,21.4,10.12l-0.39,1.5c-2.78-0.96-5.4-2.39-7.73-4.19
	c-2.33-1.81-4.35-4-6.02-6.42c-3.39-4.83-5.43-10.44-6.71-16.11c-1.26-5.69-1.8-11.51-1.9-17.31c-0.08-5.8,0.29-11.6,1.04-17.35
	c1.53-11.49,4.39-22.79,8.77-33.61c2.23-5.39,4.77-10.71,8.34-15.61c1.81-2.43,3.83-4.83,6.73-6.69c1.45-0.91,3.2-1.68,5.23-1.81
	c0.49-0.07,1.04,0,1.56,0.05c0.53,0.04,0.99,0.21,1.49,0.33c0.47,0.14,0.89,0.34,1.33,0.52c0.42,0.2,0.79,0.43,1.19,0.65
	c2.97,1.88,4.96,4.29,6.78,6.72c1.81,2.44,3.32,5,4.71,7.61c2.74,5.23,4.93,10.65,6.8,16.15c1.89,5.5,3.41,11.11,4.61,16.79
	c1.18,5.68,2.11,11.42,2.57,17.21c0.47,5.79,0.59,11.63,0.09,17.45c-0.54,5.81-1.62,11.63-3.78,17.13
	c-1.09,2.74-2.45,5.39-4.16,7.82c-1.71,2.42-3.83,4.57-6.23,6.31c-2.4,1.74-5.09,3.02-7.89,3.85c-2.8,0.84-5.71,1.17-8.58,1.22
	L148.64,119.31z"/>
<path d="M119.53,119.26c-4.66-2.29-9.36-4.39-14.11-6.33c-4.79-1.88-9.61-3.6-14.49-5.18c-9.77-3.11-19.72-5.57-29.74-7.73
	c-5.02-1.05-10.04-2.09-15.1-3c-5.05-0.9-10.13-1.71-15.23-2.4c-10.18-1.34-20.44-2.78-30.71-3.31l0.15-2.06
	c8.91,1.74,17.71,3.64,26.58,5.45c8.85,1.81,17.81,3.63,26.42,6.52c4.29,1.38,8.52,2.92,12.76,4.43c4.24,1.48,8.45,3.02,12.7,4.38
	c4.23,1.41,8.5,2.63,12.84,3.58c4.34,0.95,8.78,1.57,13.27,2.07l0,0.5c-4.52,0.43-9.1,0.41-13.67-0.05
	c-4.57-0.44-9.08-1.36-13.5-2.48c-4.41-1.16-8.76-2.45-13.05-3.88c-4.3-1.4-8.58-2.83-12.8-4.43c-2.11-0.82-4.2-1.53-6.29-2.35
	c-2.11-0.75-4.2-1.54-6.32-2.27c-4.23-1.5-8.51-2.89-12.83-4.12c-4.33-1.22-8.7-2.3-13.12-3.15C8.9,92.57,4.44,91.82,0,91.29
	l0.15-2.06C10.58,89,21,89.14,31.38,90.15c10.37,1,20.73,2.4,30.95,4.62c5.11,1.1,10.16,2.45,15.18,3.94c5,1.55,9.95,3.25,14.81,5.2
	c4.86,1.95,9.61,4.17,14.23,6.6c4.6,2.49,9.05,5.25,13.25,8.33L119.53,119.26z"/>
<path d="M166.24,116.02c4.25-1.98,8.14-4.53,11.55-7.57c3.38-3.07,6.24-6.63,8.66-10.46c1.17-1.94,2.29-3.91,3.25-5.97
	c1.01-2.03,1.86-4.14,2.67-6.26c1.55-4.28,2.78-8.68,3.74-13.15c1.9-8.94,2.91-18.14,2.95-27.36c0-1.15-0.01-2.3-0.04-3.46
	c-0.04-1.15-0.06-2.32-0.14-3.39c-0.08-1.06-0.24-2.15-0.49-2.9c-0.06-0.16-0.13-0.33-0.16-0.38c-0.03-0.08-0.03-0.02,0.19,0.09
	c0.22,0.11,0.56,0.09,0.62,0.04c0.08-0.03-0.01-0.03-0.13,0.06c-0.53,0.33-1.26,1.24-1.85,2.1c-0.62,0.89-1.21,1.85-1.77,2.84
	c-1.12,1.98-2.13,4.07-3.09,6.18c-3.83,8.49-6.71,17.47-8.73,26.6c-1.98,9.14-2.91,18.54-3.06,27.71c-0.05,2.29,0.03,4.57,0.19,6.79
	c0.18,2.21,0.49,4.4,1.14,6.3c0.33,0.94,0.75,1.78,1.27,2.38c0.52,0.6,1.06,0.96,1.75,1.1c0.69,0.16,1.56,0.11,2.49-0.14
	c0.44-0.12,0.98-0.32,1.5-0.51c0.52-0.2,1.05-0.38,1.58-0.59c4.17-1.73,8.21-3.95,12.12-6.45c3.91-2.5,7.7-5.24,11.4-8.12l0.35,0.35
	c-3.06,3.63-6.49,6.93-10.2,9.93c-0.92,0.76-1.88,1.47-2.83,2.2c-0.98,0.69-1.95,1.4-2.97,2.04c-2,1.33-4.12,2.53-6.32,3.59
	c-0.55,0.26-1.12,0.49-1.68,0.74c-0.56,0.24-1.11,0.49-1.79,0.72c-1.32,0.42-2.83,0.7-4.46,0.41c-1.63-0.26-3.19-1.24-4.2-2.4
	c-1.05-1.17-1.68-2.46-2.17-3.72c-0.95-2.54-1.28-5.04-1.45-7.51c-0.16-2.47-0.05-4.89,0.12-7.29c0.39-4.8,1.26-9.49,2.28-14.12
	c1.04-4.63,2.18-9.21,3.37-13.77c2.35-9.13,4.74-18.23,7.76-27.24c0.77-2.25,1.61-4.49,2.59-6.7c0.49-1.11,1.02-2.21,1.65-3.31
	c0.32-0.55,0.66-1.09,1.07-1.64c0.41-0.55,0.85-1.1,1.54-1.66c0.34-0.27,0.78-0.57,1.41-0.77c0.61-0.21,1.59-0.22,2.33,0.16
	c0.75,0.36,1.17,0.87,1.46,1.28c0.3,0.43,0.47,0.81,0.64,1.19c0.57,1.46,0.76,2.71,0.94,3.98c0.17,1.27,0.23,2.45,0.32,3.64
	c0.07,1.19,0.14,2.39,0.18,3.58c0.17,4.78,0.09,9.58-0.3,14.36c-0.38,4.78-1.07,9.55-2.16,14.25c-2.19,9.36-5.82,18.58-11.62,26.44
	c-1.48,1.94-3.03,3.82-4.77,5.52c-1.69,1.75-3.59,3.29-5.54,4.71c-3.96,2.79-8.38,4.87-12.98,6.04L166.24,116.02z"/>
<path d="M226.77,97.39c0.42-0.94,0.8-1.89,1.05-2.83c0.25-0.91,0.32-1.96,0.02-2.44c-0.15-0.23-0.28-0.27-0.54-0.32
	c-0.26-0.04-0.63,0-1.01,0.09c-0.78,0.19-1.61,0.61-2.38,1.11c-3.11,2.06-5.59,5.19-7.44,8.53c-0.46,0.86-0.88,1.69-1.17,2.52
	c-0.29,0.83-0.53,1.66-0.6,2.42c-0.1,0.75,0.03,1.45,0.12,1.62c0.05,0.09-0.02,0.03-0.05,0.06c-0.02,0.01,0.11,0.08,0.36,0.06
	c0.52-0.03,1.34-0.34,2.09-0.79c0.78-0.44,1.55-1.01,2.3-1.63c1.5-1.25,2.89-2.74,4.12-4.35l1.49,0.99
	c-1.2,1.65-2.34,3.36-3.33,5.13c-0.96,1.77-1.9,3.62-2.23,5.47c-0.17,0.9-0.1,1.81,0.32,2.1c0.36,0.35,1.24,0.47,2.14,0.38
	c1.83-0.18,3.76-0.81,5.64-1.48c3.77-1.4,7.52-3.05,11.3-4.62l11.36-4.8c7.58-3.24,15.35-6.09,23.25-8.56
	c7.9-2.47,15.91-4.63,24.11-6.03l0.15,0.48c-7.55,3.44-15.13,6.6-22.71,9.79c-7.58,3.17-15.15,6.32-22.9,9.13
	c-3.86,1.43-7.75,2.83-11.66,4.19c-3.92,1.34-7.9,2.58-12.05,3.45c-2.08,0.42-4.18,0.82-6.48,0.75c-0.58-0.03-1.17-0.09-1.8-0.26
	c-0.61-0.18-1.3-0.49-1.81-1.1c-0.51-0.6-0.72-1.36-0.75-1.99c-0.03-0.65,0.06-1.24,0.2-1.79c0.6-2.18,1.59-4.01,2.6-5.85
	c1.01-1.83,2.09-3.6,3.15-5.38l1.49,0.99c-1.05,1.82-2.13,3.65-3.46,5.4c-0.67,0.87-1.4,1.72-2.28,2.52c-0.9,0.76-1.9,1.54-3.4,1.95
	c-0.75,0.19-1.69,0.28-2.69-0.05c-1.01-0.31-1.89-1.11-2.34-1.92c-0.48-0.81-0.67-1.61-0.75-2.34c-0.08-0.73-0.05-1.41,0.04-2.06
	c0.35-2.55,1.51-4.68,2.66-6.51c1.17-1.86,2.56-3.6,4.15-5.14c1.6-1.53,3.39-2.89,5.46-3.85c1.04-0.47,2.15-0.86,3.41-0.97
	c0.63-0.05,1.32-0.02,2.05,0.26c0.73,0.26,1.43,0.97,1.63,1.72c0.22,0.74,0.15,1.41,0,1.99c-0.15,0.58-0.37,1.1-0.62,1.59
	c-0.5,0.98-1.14,1.84-1.81,2.64L226.77,97.39z"/>
<path d="M177.59,24.53c0.53-1.66,1.44-3.21,2.55-4.58c1.12-1.36,2.44-2.56,3.76-3.6c0.33-0.25,0.66-0.5,0.95-0.75
	c0.31-0.24,0.5-0.42,0.7-0.7c0.37-0.51,0.45-1.41-0.03-1.56c-0.25-0.09-0.63,0.06-0.95,0.27c-0.33,0.21-0.6,0.52-0.87,0.83
	c-0.51,0.64-0.91,1.38-1.24,2.15l-1.19,2.75l0.19-3.14c0.09-1.43-0.03-2.86-0.42-4.08c-0.1-0.3-0.23-0.58-0.37-0.81
	c-0.13-0.23-0.32-0.4-0.37-0.4c-0.02,0,0.03,0.03,0.12,0.03c0.09,0,0.11-0.04,0.09-0.02c-0.06,0.05-0.2,0.28-0.29,0.54
	c-0.11,0.27-0.21,0.57-0.28,0.89c-0.08,0.33-0.13,0.66-0.16,0.93c-0.06,0.6,0.03,1.31,0.11,2.02c0.19,1.43,0.46,2.93,0.53,4.46
	l-0.19,0.05c-0.71-1.35-1.38-2.68-1.89-4.15c-0.25-0.74-0.47-1.5-0.51-2.4c-0.03-0.48,0.04-0.89,0.09-1.29
	c0.06-0.41,0.15-0.83,0.3-1.27c0.17-0.43,0.37-0.89,0.86-1.36c0.25-0.23,0.62-0.45,1.07-0.52c0.47-0.06,0.89,0.09,1.19,0.27
	c0.59,0.38,0.86,0.84,1.09,1.25c0.21,0.43,0.34,0.85,0.44,1.27c0.39,1.67,0.15,3.3-0.33,4.79l-1-0.38c0.53-0.7,1.09-1.38,1.7-2.02
	c0.3-0.33,0.63-0.63,1-0.9c0.38-0.26,0.82-0.53,1.43-0.48c0.64,0.08,1.07,0.7,1.18,1.21c0.14,0.53,0.1,1.07-0.05,1.59
	c-0.13,0.5-0.48,1.02-0.79,1.35c-0.32,0.35-0.64,0.65-0.96,0.94c-1.3,1.13-2.62,2.1-3.81,3.26c-1.23,1.11-2.33,2.35-3.46,3.66
	L177.59,24.53z"/>
</svg>
