<?xml version="1.0" encoding="utf-8"?>
<!-- Generator: Adobe Illustrator 23.0.1, SVG Export Plug-In . SVG Version: 6.00 Build 0)  -->
<svg version="1.1" id="Layer_1" xmlns="http://www.w3.org/2000/svg" xmlns:xlink="http://www.w3.org/1999/xlink" x="0px" y="0px"
	 width="106.5px" height="186px" viewBox="0 0 106.5 186" style="enable-background:new 0 0 106.5 186;" xml:space="preserve">
<g>
	<g>
		<polygon points="93.9,31.8 43,97.1 71.9,100.4 54.7,152.3 103.1,85.6 73.1,82.6 		"/>
		<polygon points="22.2,0 67.6,80 35.4,78.9 46,138.8 3.4,57.7 36.9,59.2 		"/>
	</g>
	<g>
		<path d="M13.4,178.7c-0.5,0.2-1,0.4-1.4,0.5c-0.4,0.1-1,0.2-1.6,0.2c-0.6,0-1.4,0-2.3,0c-0.9,0-2.1,0-3.6,0v6.6H0v-22.3h10.1
			c1.1,0,2.1,0.2,3,0.6c0.9,0.4,1.8,1,2.5,1.7c0.7,0.7,1.3,1.6,1.7,2.5c0.4,1,0.6,2,0.6,3.1c0,1.6-0.4,3-1.3,4.3
			C15.8,177.1,14.8,178,13.4,178.7z M4.5,174.9h5.6c1,0,1.8-0.3,2.4-1c0.7-0.7,1-1.6,1-2.7c0-0.5-0.1-0.9-0.3-1.4
			c-0.2-0.4-0.4-0.8-0.7-1.2s-0.7-0.6-1.1-0.8c-0.4-0.2-0.9-0.3-1.3-0.3H4.5V174.9L4.5,174.9L4.5,174.9z M18.5,186h-5.7l-3.4-4.2
			l3.7-2.4L18.5,186z"/>
		<path d="M33.5,182H23.3l-1.7,4h-4.8l9.1-22.3h4.8l-5.9,14.4h7l-3.2-7.6l3.6-3.1l7.6,18.7h-4.8L33.5,182z"/>
		<path d="M45.5,163.7V186h-4.7v-22.3H45.5z"/>
		<path d="M61.6,164.6c1.4,0.6,2.5,1.4,3.6,2.4c1,1,1.8,2.2,2.4,3.6c0.6,1.4,0.9,2.8,0.9,4.3s-0.3,3-0.9,4.3
			c-0.6,1.4-1.4,2.5-2.4,3.6c-1,1-2.2,1.8-3.6,2.4c-1.4,0.6-2.8,0.9-4.3,0.9h-1.8l-2.1-3.9h4c0.9,0,1.8-0.2,2.6-0.5
			c0.8-0.4,1.5-0.9,2.1-1.5c0.6-0.6,1.1-1.4,1.4-2.3c0.4-0.9,0.5-1.9,0.5-2.9c0-1-0.2-2-0.5-2.9c-0.4-0.9-0.8-1.7-1.4-2.3
			c-0.6-0.6-1.3-1.2-2.1-1.5c-0.8-0.4-1.7-0.6-2.6-0.6h-5.1V186h-4.5v-22.3h9.6C58.8,163.7,60.2,164,61.6,164.6z"/>
		<path d="M85.3,163.7l0,3.7H74.8l0,14.9h10.5v3.7H70.3v-22.3H85.3z M82.6,177.1h-5l-2.1-4.1h7V177.1z"/>
		<path d="M92.1,163.7l14.4,20.7v1.6h-4.7l-9.7-14v14h-4.7v-22.3H92.1z M101.9,163.7h4.7v16.7l-4.7-3.3V163.7z"/>
	</g>
</g>
</svg>
