<?xml version="1.0" encoding="utf-8"?>
<!-- Generator: Adobe Illustrator 23.0.1, SVG Export Plug-In . SVG Version: 6.00 Build 0)  -->
<svg version="1.1" id="Layer_1" xmlns="http://www.w3.org/2000/svg" xmlns:xlink="http://www.w3.org/1999/xlink" x="0px" y="0px"
	 width="186.6px" height="186.6px" viewBox="0 0 186.6 186.6" style="enable-background:new 0 0 186.6 186.6;" xml:space="preserve"
	>
<g>
	<polygon points="172.3,93.3 136.4,129.2 100.5,93.3 136.4,57.4 143.6,64.6 114.9,93.3 136.4,114.9 157.9,93.3 150.8,86.1 
		136.4,100.5 129.2,93.3 150.8,71.8 	"/>
	<path d="M86.1,93.3L50.3,57.4L14.4,93.3l7.2,7.2l14.4-14.4l28.7,28.7L86.1,93.3z M71.8,93.3l-7.2,7.2L43.1,79l7.2-7.2L71.8,93.3z"
		/>
	<path d="M93.3,100.5l-35.9,35.9l7.2,7.2L79,129.2l1.3,13.1l0.3,2.8L82,161l11.3,11.3l-1.5-15.9l-1.5-15.9l17.4,17.4l21.5-21.5
		L93.3,100.5z M107.7,143.6L86.1,122l7.2-7.2l21.5,21.5L107.7,143.6z"/>
	<polygon points="129.2,50.3 93.3,86.1 86.1,79 103.1,62 89.3,67.8 79.2,72 71.6,64.4 75.8,54.3 81.6,40.4 81.6,40.4 64.6,57.4 
		57.4,50.3 93.3,14.4 100.5,21.5 100.5,21.5 90.2,46.2 85,58.5 97.4,53.4 122,43.1 	"/>
	<g>
		<path d="M93.3,0L93.3,0l-3.6,3.6L3.6,89.7L0,93.3l3.6,3.6l86.1,86.1l3.6,3.6l3.6-3.6l86.1-86.1l3.6-3.6l0,0L93.3,0z M93.3,179.5
			L7.2,93.3L93.3,7.2l86.1,86.1L93.3,179.5z"/>
	</g>
</g>
</svg>
